<svg width="156" height="156" viewBox="0 0 156 156" fill="none" xmlns="http://www.w3.org/2000/svg">
<g id="Group 135">
<path id="Vector" opacity="0.11" d="M136.528 91.4678C137.215 108.357 120.681 146.465 72.4016 144.186C26.9105 142.039 -18.1048 105.827 7.40191 48.6762C32.0504 -6.55171 76.4007 -1.96548 92.0345 2.40833C109.321 7.24439 158.705 26.8352 130.453 59.4413C85.1227 111.759 135.126 57.0328 136.528 91.4678Z" fill="#2A94F4"/>
<path id="Vector_2" d="M96.6499 58.6004C97.2927 58.2443 97.9038 57.8955 98.2783 57.2789C98.455 56.9891 98.6083 56.7026 98.8822 56.5055C99.1632 56.3038 99.4139 55.968 99.656 55.6863C99.884 55.4216 100.124 55.0717 100.498 54.9571C100.946 54.8213 100.813 55.4021 100.669 55.7769C100.513 56.1846 99.3705 56.9331 99.5182 57.3709C99.666 57.8088 101 56.8106 101.263 56.6086C101.882 56.1297 101.81 55.5476 102.104 54.9028C102.275 54.5254 102.468 54.4048 102.705 54.82C102.883 55.1292 102.726 55.5167 102.616 55.824C102.394 56.4506 102.006 57.1117 101.494 57.5589C101.934 57.2584 102.455 56.5224 102.707 56.0507C102.881 55.7239 103.377 54.2057 103.914 54.4334C104.991 54.8917 102.891 57.8246 102.312 58.1385C102.86 57.7662 103.238 57.2276 103.63 56.6981C103.86 56.3876 104.373 55.6301 104.619 56.2784C104.983 57.2344 103.202 58.3505 102.495 58.9911C103.092 58.7306 103.458 58.3456 104.005 57.9129C104.651 57.4016 104.801 58.0538 104.232 58.6918C103.992 58.9611 103.425 59.4149 103.299 59.5114C101.974 60.5229 101.07 60.7227 99.4738 60.876C98.9008 60.9312 97.9094 61.6357 97.505 61.3447C96.7224 60.7808 96.79 59.4048 96.6501 58.6002L96.6499 58.6004Z" fill="#E7A192"/>
<path id="Vector_3" d="M97.4482 56.98C97.4482 56.98 85.1452 60.4083 83.9008 60.3275C82.6564 60.2446 79.7731 49.4199 78.6193 44.0767C78.5115 43.5794 76.874 43.5498 75.0222 41.9874C74.2565 41.3426 71.9924 42.5767 71.2349 41.9874C69.7816 43.5219 69.3795 45.7428 70.262 47.6921C73.065 53.8848 75.4746 65.7707 81.9265 65.8941C90.4569 66.0572 99.1098 61.6015 99.1098 61.6015L97.4484 56.98H97.4482Z" fill="#33A5AD"/>
<path id="Vector_4" d="M100.096 58.4593C100.096 58.4593 99.603 57.6193 99.5183 57.3707C99.3705 56.9329 100.513 56.1844 100.669 55.7767C100.813 55.4019 100.946 54.8211 100.498 54.9569C100.125 55.0715 99.8841 55.4214 99.6561 55.6861C99.4141 55.9678 99.1633 56.3036 98.8823 56.5053C98.6084 56.7025 98.4551 56.989 98.2784 57.2787C98.1374 57.5103 97.9552 57.6967 97.7593 57.8679C98.2221 58.2837 100.096 58.4591 100.096 58.4591V58.4593Z" fill="#E7A192"/>
<path id="Vector_5" d="M45.832 139.65H100.111V130.3H45.832V139.65Z" fill="#FFCE72"/>
<path id="Vector_6" d="M48.8682 139.65H51.6013V130.3H48.8682V139.65Z" fill="#FAAA41"/>
<path id="Vector_7" d="M54.606 139.65H57.3379V130.3H54.606V139.65Z" fill="#FAAA41"/>
<path id="Vector_8" d="M60.3438 139.65H63.0757V130.3H60.3438V139.65Z" fill="#FAAA41"/>
<path id="Vector_9" d="M66.0811 139.65H68.813V130.3H66.0811V139.65Z" fill="#FAAA41"/>
<path id="Vector_10" d="M71.8188 139.65H74.5507V130.3H71.8188V139.65Z" fill="#FAAA41"/>
<path id="Vector_11" d="M77.5566 139.65H80.2887V130.3H77.5566V139.65Z" fill="#FAAA41"/>
<path id="Vector_12" d="M83.2935 139.65H86.0266V130.3H83.2935V139.65Z" fill="#FAAA41"/>
<path id="Vector_13" d="M89.0308 139.65H91.7627V130.3H89.0308V139.65Z" fill="#FAAA41"/>
<path id="Vector_14" d="M94.7686 139.65H97.5005V130.3H94.7686V139.65Z" fill="#FAAA41"/>
<path id="Vector_15" d="M38.9419 130.3H93.2199V120.95H38.9419V130.3Z" fill="#FFCE72"/>
<path id="Vector_16" d="M41.9771 130.3H44.709V120.95H41.9771V130.3Z" fill="#FAAA41"/>
<path id="Vector_17" d="M47.7153 130.3H50.4472V120.95H47.7153V130.3Z" fill="#FAAA41"/>
<path id="Vector_18" d="M53.4531 130.3H56.185V120.95H53.4531V130.3Z" fill="#FAAA41"/>
<path id="Vector_19" d="M59.1909 130.3H61.9228V120.95H59.1909V130.3Z" fill="#FAAA41"/>
<path id="Vector_20" d="M64.9272 130.3H67.6591V120.95H64.9272V130.3Z" fill="#FAAA41"/>
<path id="Vector_21" d="M70.665 130.3H73.3972V120.95H70.665V130.3Z" fill="#FAAA41"/>
<path id="Vector_22" d="M76.4028 130.3H79.1346V120.95H76.4028V130.3Z" fill="#FAAA41"/>
<path id="Vector_23" d="M82.1406 130.3H84.8725V120.95H82.1406V130.3Z" fill="#FAAA41"/>
<path id="Vector_24" d="M87.8779 130.3H90.6097V120.95H87.8779V130.3Z" fill="#FAAA41"/>
<path id="Vector_25" d="M48.2617 120.95H102.54V111.6H48.2617V120.95Z" fill="#FFCE72"/>
<path id="Vector_26" d="M51.2974 120.95H54.0295V111.6H51.2974V120.95Z" fill="#FAAA41"/>
<path id="Vector_27" d="M57.0356 120.95H59.7675V111.6H57.0356V120.95Z" fill="#FAAA41"/>
<path id="Vector_28" d="M62.7715 120.95H65.5042V111.6H62.7715V120.95Z" fill="#FAAA41"/>
<path id="Vector_29" d="M68.5093 120.95H71.2412V111.6H68.5093V120.95Z" fill="#FAAA41"/>
<path id="Vector_30" d="M74.2471 120.95H76.9789V111.6H74.2471V120.95Z" fill="#FAAA41"/>
<path id="Vector_31" d="M79.9854 120.95H82.7172V111.6H79.9854V120.95Z" fill="#FAAA41"/>
<path id="Vector_32" d="M85.7222 120.95H88.4544V111.6H85.7222V120.95Z" fill="#FAAA41"/>
<path id="Vector_33" d="M91.46 120.95H94.1918V111.6H91.46V120.95Z" fill="#FAAA41"/>
<path id="Vector_34" d="M97.1968 120.95H99.9296V111.6H97.1968V120.95Z" fill="#FAAA41"/>
<path id="Vector_35" d="M43.5254 111.6H97.8034V102.25H43.5254V111.6Z" fill="#FFCE72"/>
<path id="Vector_36" d="M46.561 111.6H49.2928V102.25H46.561V111.6Z" fill="#FAAA41"/>
<path id="Vector_37" d="M52.2993 111.6H55.0311V102.25H52.2993V111.6Z" fill="#FAAA41"/>
<path id="Vector_38" d="M58.0366 111.6H60.7684V102.25H58.0366V111.6Z" fill="#FAAA41"/>
<path id="Vector_39" d="M63.7744 111.6H66.5062V102.25H63.7744V111.6Z" fill="#FAAA41"/>
<path id="Vector_40" d="M69.5107 111.6H72.2439V102.25H69.5107V111.6Z" fill="#FAAA41"/>
<path id="Vector_41" d="M75.2485 111.6H77.9817V102.25H75.2485V111.6Z" fill="#FAAA41"/>
<path id="Vector_42" d="M80.9868 111.6H83.7186V102.25H80.9868V111.6Z" fill="#FAAA41"/>
<path id="Vector_43" d="M86.7241 111.6H89.4559V102.25H86.7241V111.6Z" fill="#FAAA41"/>
<path id="Vector_44" d="M92.4619 111.6H95.1938V102.25H92.4619V111.6Z" fill="#FAAA41"/>
<path id="Vector_45" d="M36.6338 102.25H90.9135V92.9008H36.6338V102.25Z" fill="#FFCE72"/>
<path id="Vector_46" d="M39.6709 102.25H42.4027V92.9008H39.6709V102.25Z" fill="#FAAA41"/>
<path id="Vector_47" d="M45.4077 102.25H48.1408V92.9008H45.4077V102.25Z" fill="#FAAA41"/>
<path id="Vector_48" d="M51.145 102.25H53.8769V92.9008H51.145V102.25Z" fill="#FAAA41"/>
<path id="Vector_49" d="M56.8833 102.25H59.6152V92.9008H56.8833V102.25Z" fill="#FAAA41"/>
<path id="Vector_50" d="M62.6201 102.25H65.3523V92.9008H62.6201V102.25Z" fill="#FAAA41"/>
<path id="Vector_51" d="M68.3584 102.25H71.0902V92.9008H68.3584V102.25Z" fill="#FAAA41"/>
<path id="Vector_52" d="M74.0962 102.25H76.828V92.9008H74.0962V102.25Z" fill="#FAAA41"/>
<path id="Vector_53" d="M79.8325 102.25H82.5656V92.9008H79.8325V102.25Z" fill="#FAAA41"/>
<path id="Vector_54" d="M85.5698 102.25H88.3033V92.9008H85.5698V102.25Z" fill="#FAAA41"/>
<path id="Vector_55" d="M43.9507 92.9008H98.2293V83.5497H43.9507V92.9008Z" fill="#FFCE72"/>
<path id="Vector_56" d="M46.9863 92.9008H49.7181V83.5497H46.9863V92.9008Z" fill="#FAAA41"/>
<path id="Vector_57" d="M52.7241 92.9008H55.4563V83.5497H52.7241V92.9008Z" fill="#FAAA41"/>
<path id="Vector_58" d="M58.4619 92.9008H61.1937V83.5497H58.4619V92.9008Z" fill="#FAAA41"/>
<path id="Vector_59" d="M64.1982 92.9008H66.9314V83.5497H64.1982V92.9008Z" fill="#FAAA41"/>
<path id="Vector_60" d="M69.9365 92.9008H72.6683V83.5497H69.9365V92.9008Z" fill="#FAAA41"/>
<path id="Vector_61" d="M75.6738 92.9008H78.4056V83.5497H75.6738V92.9008Z" fill="#FAAA41"/>
<path id="Vector_62" d="M81.4116 92.9008H84.1434V83.5497H81.4116V92.9008Z" fill="#FAAA41"/>
<path id="Vector_63" d="M87.1489 92.9008H89.8811V83.5497H87.1489V92.9008Z" fill="#FAAA41"/>
<path id="Vector_64" d="M92.8872 92.9008H95.619V83.5497H92.8872V92.9008Z" fill="#FAAA41"/>
<path id="Vector_65" d="M103.243 96.1332C103.243 96.1332 104.384 101.431 105.446 101.927C106.507 102.423 117.644 99.6869 118.286 98.4298C118.929 97.174 118.021 95.8607 115.642 95.951C113.505 96.0325 112.101 96.8229 110.367 96.5653C108.846 96.3386 107.359 93.4495 107.359 93.4495L103.243 96.1333V96.1332ZM84.3278 108.176C84.3278 108.176 81.4732 112.783 81.8939 113.876C82.3132 114.97 92.2304 120.729 93.5654 120.269C94.9002 119.811 95.1581 118.235 93.3819 116.649C91.7856 115.225 90.2271 114.82 89.1581 113.431C88.2193 112.212 89.1536 109.1 89.1536 109.1L84.3278 108.176Z" fill="#2C2A43"/>
<path id="Vector_66" d="M67.6588 69.1005C67.6588 69.1005 72.1519 71.4374 74.2468 71.1642C76.3416 70.8917 94.264 72.3025 96.3589 74.0325C98.4537 75.7633 89.881 110.325 89.881 110.325L82.7772 109.141C82.7772 109.141 85.3236 83.8737 84.8984 83.6917C84.4745 83.5095 73.7462 83.5498 55.4558 83.5498C50.9923 83.5498 46.0142 74.1699 51.6615 67.6118L67.6588 69.1005Z" fill="#268CCB"/>
<path id="Vector_67" d="M93.3042 95.615C93.5001 94.7191 93.6972 93.8116 93.8909 92.9007H93.9072C93.7077 93.808 93.5051 94.7159 93.3043 95.615H93.3042ZM95.8356 83.5497H95.7278C95.9182 82.4551 96.0867 81.4172 96.2287 80.4521C96.2713 80.4762 96.3158 80.4983 96.3593 80.5197C96.2069 81.4802 96.0306 82.4957 95.8357 83.5497H95.8356Z" fill="#5D94C2"/>
<path id="Vector_68" d="M95.6187 84.6971V84.166C95.6553 83.9597 95.6921 83.7538 95.7275 83.5498H95.8353C95.7655 83.928 95.6933 84.3093 95.6187 84.6972V84.6971Z" fill="#5F838E"/>
<path id="Vector_69" d="M91.4786 72.6692C86.0861 71.758 77.9546 71.1301 75.0909 71.1301C74.7102 71.1301 74.4227 71.1415 74.2473 71.1642C74.5568 71.1242 75.2169 71.1038 76.1254 71.1038C79.5223 71.1038 86.3782 71.3904 91.2738 71.9919C91.3391 72.2173 91.4079 72.4431 91.4787 72.6692H91.4786ZM73.8795 71.186C71.67 71.186 67.6593 69.1006 67.6593 69.1006L66.6279 69.0045L67.6605 69.1006C67.6605 69.1006 71.67 71.186 73.8795 71.186Z" fill="#5D94C2"/>
<path id="Vector_70" d="M93.9074 92.9008H93.8911C94.5271 89.9074 95.1346 86.8878 95.6192 84.166V84.6971C95.1197 87.298 94.5226 90.1023 93.9074 92.9008Z" fill="#5C7776"/>
<path id="Vector_71" d="M93.3043 95.6151C91.8731 90.4505 89.6558 85.6033 87.585 80.9794C85.8614 77.1324 82.0339 75.1087 78.1768 74.0864C75.9455 73.4955 73.5713 73.3679 71.3114 72.8683C69.4264 72.4512 67.9149 70.8459 66.6279 69.0044L67.6593 69.1005C67.6593 69.1005 71.6701 71.1859 73.8795 71.1859C73.8804 71.1859 73.8817 71.1859 73.8817 71.1859C74.0101 71.1859 74.1325 71.1794 74.2472 71.1641C74.4226 71.1414 74.7101 71.13 75.0908 71.13C77.9545 71.13 86.0861 71.7579 91.4786 72.6691C91.9323 74.1175 92.4998 75.5611 93.272 76.838C93.9918 78.0262 94.9348 79.7459 96.2287 80.452C96.0867 81.4171 95.9181 82.455 95.7277 83.5496C95.6923 83.7537 95.6556 83.9596 95.6189 84.1658C95.1342 86.8876 94.5268 89.9072 93.8907 92.9006C93.6971 93.8114 93.4999 94.719 93.304 95.6149L93.3043 95.6151Z" fill="#2674B9"/>
<path id="Vector_72" d="M69.5107 65.2441C69.5107 65.2441 90.8525 66.5197 92.8866 68.523C94.9208 70.5273 108.654 94.1621 108.654 94.1621L102.995 98.243C102.995 98.243 91.7442 81.6544 86.3238 75.188C85.0933 73.7197 83.3892 72.7414 81.4997 72.424C79.1882 72.0352 75.8158 71.5278 73.2912 71.3926C69.0557 71.1642 67.1362 69.0512 67.1362 69.0512L69.5108 65.2441H69.5107Z" fill="#268CCB"/>
<path id="Vector_73" d="M74.9955 32.2859C74.3251 31.9082 73.7638 31.4073 73.2353 30.8673C72.7139 32.9209 71.4786 36.6786 69.1167 38.4386C69.1167 38.4386 73.3063 40.7731 77.0101 40.3947C77.0101 40.3947 77.1579 35.4488 78.1847 33.1372C77.0741 33.0778 75.9765 32.8432 74.9954 32.2858L74.9955 32.2859Z" fill="#FBCDC2"/>
<path id="Vector_74" d="M72.1422 37.9942C73.0842 35.913 75.4185 34.8251 77.6095 35.0558C77.7619 34.3395 77.9495 33.668 78.1848 33.1373C77.0742 33.0779 75.9766 32.8433 74.9955 32.2859C74.3251 31.9082 73.7638 31.4073 73.2353 30.8673C72.7139 32.9209 71.4786 36.6786 69.1167 38.4386C69.1167 38.4386 70.1448 39.0103 71.63 39.542C71.7261 39.0255 71.9048 38.5188 72.1422 37.9941V37.9942Z" fill="#E7A192"/>
<path id="Vector_75" d="M78.5851 19.5502C78.5851 19.5502 84.0637 19.8928 85.2382 21.4502C86.4128 23.0087 86.4508 26.5039 85.5007 28.1758C84.5506 29.8477 85.7976 32.6906 85.604 33.3517C85.449 33.8834 83.7164 33.644 83.5904 33.8204C83.4634 33.9981 82.1284 37.1964 79.7756 36.9203C76.4661 36.5295 73.3676 32.5575 72.6835 30.2018C71.9994 27.8467 73.5702 18.8788 78.5851 19.5502Z" fill="#FBCDC2"/>
<path id="Vector_76" d="M87.6103 23.2549C87.4508 22.8976 86.9489 22.2249 86.9158 21.8305C86.886 21.5005 86.9445 21.1601 86.87 20.8427C86.6316 19.8389 86.7255 19.2088 84.7602 17.6503C83.0516 16.297 80.3048 16.0446 78.2902 16.6865C77.5477 16.9226 76.8386 17.2845 76.2379 17.7844C76.058 17.9344 75.5207 18.3298 75.5239 18.5611C75.5284 18.8534 76.1853 19.3036 76.3603 19.5216C76.6735 19.91 76.8693 20.4015 77.1192 20.8349C78.6524 23.5037 81.3946 26.7833 84.8164 25.2124C85.2666 25.0049 85.7249 24.7735 86.1446 24.5075C86.2099 25.6752 86.1021 26.9529 85.5727 28.014C85.5727 28.014 86.603 27.7197 87.1725 26.8271C88.1363 25.3167 87.9894 24.1099 87.6103 23.2549Z" fill="#2C2A43"/>
<path id="Vector_77" d="M77.3305 19.1318C76.8621 18.5854 75.7116 18.2631 75.0456 18.1602C73.6557 17.9458 72.6013 18.6185 71.8966 19.7782C71.4701 20.4795 71.0671 21.2116 70.785 21.9819C70.2841 23.3465 70.0229 24.2222 70.0229 25.6752C70.0229 27.0454 70.1935 28.4652 70.8182 29.7031C71.3821 30.8202 72.733 32.3768 73.7118 32.3605C74.0922 32.3547 75.4731 30.1777 75.6209 29.5303C75.7618 28.9075 75.4753 28.7887 75.1132 28.3485C74.5026 27.6056 73.9662 26.4005 74.8991 25.6751C76.2293 24.6415 77.5014 25.8389 77.3305 27.9097C77.3305 27.9097 77.5209 29.1827 77.9198 29.1447C78.3183 29.1057 81.8526 24.4009 77.3305 19.1318Z" fill="#2C2A43"/>
<path id="Vector_78" d="M75.3735 26.0773C75.3735 26.0773 76.3314 26.0455 76.6764 27.0135C76.9974 27.9188 76.3006 28.9102 75.8836 28.2778C75.4665 27.6447 75.8332 27.3757 75.8618 26.9985C75.8916 26.6227 75.5856 26.1952 75.3735 26.0772V26.0773Z" fill="#E7A192"/>
<path id="Vector_79" d="M48.1402 69.5816C48.1402 69.5816 54.5151 76.4463 71.3021 71.7112C71.3021 71.7112 71.8706 67.5212 73.6513 63.3929C75.4307 59.2639 78.3207 51.1528 78.8915 46.7569C79.5357 41.794 77.0718 39.2363 77.0718 39.2363C77.0718 39.2363 73.8976 41.5841 70.0427 37.5907C70.0427 37.5907 61.7403 38.56 56.8828 47.3036C52.0261 56.0458 48.1401 69.5816 48.1401 69.5816H48.1402Z" fill="#3FC0C6"/>
<path id="Vector_80" d="M71.2085 44.7114C71.1523 44.5055 71.1065 44.2895 71.0581 44.0767C67.036 46.0371 67.5437 49.922 68.5097 55.7733C69.2533 60.2732 71.4098 67.3815 71.8396 68.9758C72.2054 67.4264 72.784 65.405 73.6516 63.393C74.4731 61.4868 75.5297 58.7307 76.4876 55.8841C75.0256 53.7474 74.0478 51.4507 73.1669 48.9512C72.6488 47.4849 71.6232 46.2265 71.2085 44.7115V44.7114Z" fill="#33A5AD"/>
<path id="Vector_81" d="M98.6544 54.4781L112.765 46.065C112.765 46.065 117.91 51.1081 119.366 57.9835L103.349 65.4884C103.349 65.4884 100.851 59.6086 98.6543 54.4781H98.6544Z" fill="#E5E6E5"/>
<path id="Vector_82" d="M109.566 59.7496C106.282 58.7754 102.819 56.1927 101.144 52.9933L98.6543 54.4781C100.851 59.6085 103.349 65.4884 103.349 65.4884L115.042 60.0094C113.272 60.3089 111.529 60.3326 109.566 59.7496Z" fill="#A8AAAB"/>
<path id="Vector_83" d="M101.16 55.3082L107.19 54.6594L107.375 54.64L107.469 54.7832L108.316 56.0744L108.081 55.9474H112.588L112.635 56.1698L113 57.8535L112.682 57.6352L115.788 57.1528L115.874 57.7086L112.768 58.19L112.507 58.2309L112.451 57.9724L112.086 56.2878L112.361 56.5091H107.929L107.845 56.383L106.999 55.0915L107.278 55.2149L101.341 56.4596L101.16 55.3082Z" fill="#F1666E"/>
<path id="Vector_84" d="M115.482 57.4855L114.948 56.8508L114.969 56.8309L116.181 57.1071C116.593 57.1334 117.005 57.1587 117.415 57.185C117.031 57.3341 116.647 57.4832 116.263 57.6333L115.192 58.2635L115.166 58.2553L115.482 57.4855Z" fill="#F1666E"/>
<path id="Vector_85" d="M113.735 49.7379C113.669 49.6255 113.513 49.5865 113.39 49.6528L112.272 50.23L111.748 49.2724C111.688 49.1622 111.531 49.1301 111.398 49.1958C111.263 49.262 111.2 49.4089 111.259 49.5199L111.769 50.4892L110.55 51.1197C110.397 51.1986 110.32 51.3685 110.376 51.4988C110.418 51.5962 110.524 51.6456 110.636 51.6316L110.758 51.5916L112.001 50.9293L112.568 52.0055C112.618 52.1017 112.721 52.1475 112.829 52.1325L112.952 52.0877C113.092 52.002 113.148 51.8266 113.075 51.6986L112.507 50.6591L113.62 50.0663C113.75 49.9978 113.799 49.8496 113.735 49.7379H113.735Z" fill="#33A5AD"/>
<path id="Vector_86" d="M98.61 63.1541C99.3422 63.1921 100.046 63.2194 100.691 62.8955C100.994 62.7428 101.275 62.5824 101.611 62.5606C101.957 62.5375 102.348 62.3852 102.702 62.2754C103.036 62.1711 103.425 62.0025 103.803 62.1035C104.255 62.2246 103.834 62.6476 103.513 62.8883C103.165 63.1518 101.8 63.1807 101.694 63.6308C101.587 64.0801 103.246 63.94 103.576 63.9082C104.356 63.8303 104.603 63.2985 105.194 62.9064C105.539 62.6771 105.766 62.6787 105.748 63.1562C105.734 63.5126 105.395 63.7569 105.14 63.9599C104.619 64.3734 103.941 64.7288 103.269 64.8363C103.802 64.8155 104.633 64.4672 105.097 64.2003C105.417 64.0158 106.643 62.9916 106.976 63.4691C107.648 64.4283 104.313 65.8036 103.656 65.761C104.317 65.736 104.924 65.4804 105.537 65.2387C105.897 65.0977 106.732 64.7261 106.598 65.407C106.4 66.411 104.297 66.4133 103.357 66.5815C104.003 66.6777 104.518 66.5448 105.211 66.4682C106.03 66.3766 105.812 67.009 104.989 67.2484C104.644 67.3492 103.923 67.4342 103.766 67.4492C102.105 67.6048 101.233 67.2955 99.7983 66.5793C99.2828 66.3224 98.0679 66.3948 97.8801 65.9342C97.5143 65.0413 98.3018 63.9105 98.61 63.1539V63.1541Z" fill="#FBCDC2"/>
<path id="Vector_87" d="M98.9422 62.6033L99.3512 67.3391C99.3512 67.3391 78.9994 68.9758 76.6674 67.4895C74.3319 66.0021 73.2238 63.5863 72.4858 61.4147C71.0097 57.075 65.1998 45.1182 70.4358 43.2965C72.0778 42.7258 74.2484 42.7382 75.3459 44.8833C77.8007 49.6768 80.4306 60.3739 81.1238 60.8294C82.0944 61.4664 98.9422 62.6033 98.9422 62.6033Z" fill="#3FC0C6"/>
</g>
</svg>
