<svg width="114" height="114" viewBox="0 0 114 114" fill="none" xmlns="http://www.w3.org/2000/svg">
<g id="flow-chart-svgrepo-com 1" clip-path="url(#clip0_191_2811)">
<path id="flow--chart_1_" d="M103.312 111.72C98.6739 111.72 94.9048 107.947 94.9048 103.313C94.9048 99.1123 98.0006 95.6211 102.03 95.0012V83.22H76.0948V95.0012C80.124 95.6211 83.2198 99.1123 83.2198 103.313C83.2198 107.951 79.4471 111.72 74.8123 111.72C70.1775 111.72 66.4048 107.947 66.4048 103.313C66.4048 99.1123 69.5006 95.6211 73.5298 95.0012V81.9375C73.5298 81.2286 74.1033 80.655 74.8123 80.655H87.7548V65.4075H67.6873C66.9783 65.4075 66.4048 64.834 66.4048 64.125V49.875C66.4048 49.1661 66.9783 48.5925 67.6873 48.5925H87.7798V33.345H26.2198V48.5925H46.3123C47.0212 48.5925 47.5948 49.1661 47.5948 49.875V64.125C47.5948 64.834 47.0212 65.4075 46.3123 65.4075H26.2198V80.6515H39.1873C39.8962 80.6515 40.4698 81.225 40.4698 81.934V94.9977C44.499 95.6175 47.5948 99.1088 47.5948 103.309C47.5948 107.947 43.8221 111.716 39.1873 111.716C34.5525 111.716 30.7798 107.951 30.7798 103.313C30.7798 99.1123 33.8756 95.6211 37.9048 95.0012V83.22H11.9698V95.0012C15.999 95.6211 19.0948 99.1123 19.0948 103.313C19.0948 107.951 15.3221 111.72 10.6873 111.72C6.05247 111.72 2.27979 107.951 2.27979 103.313C2.27979 99.1123 5.3756 95.6211 9.40479 95.0012V81.9375C9.40479 81.2286 9.97835 80.655 10.6873 80.655H23.6548V65.4075H3.56229C2.85335 65.4075 2.27979 64.834 2.27979 64.125V49.875C2.27979 49.1661 2.85335 48.5925 3.56229 48.5925H23.6548V32.0625C23.6548 31.3536 24.2283 30.78 24.9373 30.78H55.7173V19.095H3.56229C2.85335 19.095 2.27979 18.5215 2.27979 17.8125V3.56253C2.27979 2.85359 2.85335 2.28003 3.56229 2.28003H110.437C111.146 2.28003 111.72 2.85359 111.72 3.56253V17.8125C111.72 18.5215 111.146 19.095 110.437 19.095H58.2823V30.78H89.0623C89.7712 30.78 90.3448 31.3536 90.3448 32.0625V48.5925H110.437C111.146 48.5925 111.72 49.1661 111.72 49.875V64.125C111.72 64.834 111.146 65.4075 110.437 65.4075H90.3234V80.6515H103.312C104.021 80.6515 104.595 81.225 104.595 81.934V94.9977C108.624 95.6175 111.72 99.1088 111.72 103.309C111.72 107.951 107.951 111.72 103.312 111.72ZM103.312 97.47C100.092 97.47 97.4698 100.088 97.4698 103.313C97.4698 106.537 100.088 109.155 103.312 109.155C106.536 109.155 109.155 106.537 109.155 103.313C109.155 100.088 106.533 97.47 103.312 97.47ZM74.8123 97.47C71.5918 97.47 68.9698 100.088 68.9698 103.313C68.9698 106.537 71.5882 109.155 74.8123 109.155C78.0363 109.155 80.6548 106.537 80.6548 103.313C80.6548 100.088 78.0328 97.47 74.8123 97.47ZM39.1873 97.47C35.9668 97.47 33.3448 100.088 33.3448 103.313C33.3448 106.537 35.9668 109.155 39.1873 109.155C42.4078 109.155 45.0298 106.537 45.0298 103.313C45.0298 100.088 42.4078 97.47 39.1873 97.47ZM10.6873 97.47C7.46679 97.47 4.84479 100.088 4.84479 103.313C4.84479 106.537 7.46679 109.155 10.6873 109.155C13.9078 109.155 16.5298 106.533 16.5298 103.313C16.5298 100.092 13.9078 97.47 10.6873 97.47ZM89.1335 62.8425H109.155V51.1575H68.9698V62.8425H88.9412C89.0053 62.8425 89.0694 62.8425 89.1335 62.8425ZM25.0335 62.8425H45.0298V51.1575H4.84479V62.8425H24.8411C24.9052 62.8425 24.9693 62.8425 25.0335 62.8425ZM4.84479 16.53H109.155V4.84503H4.84479V16.53Z" fill="black"/>
</g>
<defs>
<clipPath id="clip0_191_2811">
<rect width="114" height="114" fill="white"/>
</clipPath>
</defs>
</svg>
