<svg width="174" height="175" viewBox="0 0 174 175" fill="none" xmlns="http://www.w3.org/2000/svg">
<g id="Group 139">
<g id="Group 138">
<path id="Vector" opacity="0.11" d="M43.0668 42.2588C50.1278 28.7917 80.1496 6.54056 116.737 30.0314C151.211 52.1657 169.993 100.624 124.416 133.675C80.3726 165.614 47.8841 142.093 37.6717 131.654C26.3798 120.111 -3.28115 82.6363 33.3942 69.9416C92.241 49.5725 28.6706 69.7162 43.0668 42.2588Z" fill="#2A94F4"/>
<path id="Vector_2" d="M128.544 87.723C127.896 87.723 127.245 87.6856 126.605 87.611C126.329 87.5789 126.076 87.4427 125.898 87.2303C125.719 87.0179 125.629 86.7454 125.645 86.4684C125.729 84.9732 124.862 83.5817 123.487 83.0063C122.177 82.4571 120.469 82.8417 119.51 83.9012C119.123 84.3286 118.469 84.3798 118.022 84.0188C117.034 83.2234 116.138 82.3174 115.358 81.3243C115.008 80.8803 115.06 80.2329 115.477 79.8512C116.568 78.8511 116.926 77.266 116.369 75.9063C115.817 74.5632 114.496 73.6848 113.089 73.7208C112.543 73.7208 111.896 73.3252 111.832 72.7581C111.689 71.48 111.691 70.1908 111.839 68.9294C111.909 68.3443 112.374 67.9501 112.966 67.9694C114.525 67.9694 115.892 67.1229 116.442 65.813C117.019 64.4381 116.661 62.8391 115.55 61.8335C115.125 61.4462 115.074 60.7933 115.434 60.3466C116.229 59.3534 117.146 58.4474 118.157 57.6535C118.604 57.3049 119.251 57.3602 119.633 57.778C120.583 58.8223 122.281 59.2096 123.582 58.677C124.941 58.121 125.818 56.753 125.766 55.273C125.747 54.7072 126.173 54.2162 126.735 54.154C127.993 54.0147 129.264 54.018 130.522 54.1636C131.094 54.23 131.516 54.7321 131.482 55.3062C131.397 56.8 132.263 58.1915 133.637 58.7697C134.949 59.3175 136.66 58.9329 137.615 57.8762C138.001 57.4487 138.654 57.3962 139.102 57.7558C140.084 58.5415 140.98 59.4489 141.77 60.4503C142.121 60.8957 142.069 61.543 141.651 61.9248C140.561 62.9249 140.203 64.51 140.759 65.8697C141.303 67.1976 142.6 68.0552 144.063 68.0552C144.595 68.0552 145.231 68.4508 145.294 69.0193C145.437 70.2974 145.436 71.5865 145.288 72.848C145.22 73.422 144.705 73.8536 144.139 73.8065L143.942 73.801C142.536 73.801 141.224 74.6697 140.683 75.963C140.106 77.3365 140.466 78.9355 141.576 79.9425C142.002 80.3284 142.054 80.9812 141.694 81.4294C140.892 82.4278 139.978 83.3314 138.97 84.1225C138.515 84.4738 137.882 84.4213 137.495 83.9994C136.543 82.9551 134.844 82.5678 133.543 83.1003C132.184 83.6564 131.307 85.0244 131.36 86.503C131.379 87.0687 130.953 87.5612 130.392 87.6234C129.78 87.6884 129.159 87.723 128.544 87.723ZM122.206 82.4378C122.691 82.4378 123.171 82.5263 123.61 82.7103C125.111 83.3382 126.057 84.8556 125.964 86.4864C125.953 86.6817 126.017 86.8739 126.142 87.0238C126.268 87.1736 126.446 87.2699 126.641 87.2928C127.875 87.4357 129.121 87.439 130.356 87.3025C130.753 87.2582 131.053 86.911 131.039 86.5127C130.981 84.9013 131.938 83.4102 133.42 82.8029C134.84 82.2234 136.692 82.6439 137.728 83.7836C138.001 84.081 138.449 84.1183 138.77 83.8694C139.756 83.0962 140.655 82.2068 141.441 81.2288C141.563 81.0765 141.623 80.8831 141.608 80.6881C141.592 80.4931 141.503 80.3115 141.358 80.1804C140.146 79.0821 139.755 77.3379 140.383 75.8399C140.975 74.429 142.405 73.4815 143.942 73.4815L144.152 73.487C144.557 73.5188 144.917 73.2159 144.965 72.8106C145.11 71.5727 145.113 70.3084 144.972 69.0552C144.929 68.6735 144.447 68.3761 144.059 68.3761C142.466 68.3761 141.052 67.4396 140.457 65.9914C139.852 64.5073 140.242 62.7782 141.43 61.6883C141.724 61.4185 141.762 60.9621 141.514 60.6481C140.741 59.666 139.86 58.7766 138.898 58.0062C138.746 57.884 138.552 57.8247 138.358 57.8404C138.163 57.8561 137.981 57.9456 137.85 58.0906C136.808 59.2442 134.943 59.6633 133.511 59.0657C132.012 58.435 131.068 56.9176 131.159 55.2882C131.171 55.0929 131.107 54.9007 130.981 54.7508C130.856 54.6009 130.677 54.5047 130.483 54.4818C129.248 54.3393 127.997 54.3352 126.768 54.4721C126.371 54.5164 126.071 54.8622 126.084 55.2619C126.141 56.8747 125.184 58.3658 123.701 58.973C122.281 59.5526 120.43 59.1321 119.394 57.9924C119.126 57.6977 118.668 57.659 118.352 57.9052C117.364 58.6803 116.468 59.5662 115.681 60.5457C115.559 60.6983 115.5 60.8916 115.515 61.0864C115.531 61.2812 115.62 61.4627 115.764 61.5942C116.975 62.6911 117.366 64.4353 116.737 65.9361C116.136 67.365 114.655 68.2889 112.961 68.2889C112.528 68.2765 112.207 68.5476 112.157 68.9667C112.012 70.2047 112.01 71.4675 112.15 72.7221C112.193 73.1039 112.687 73.3999 113.085 73.3999C114.625 73.3598 116.062 74.3183 116.665 75.7845C117.273 77.2673 116.882 78.9963 115.692 80.0877C115.399 80.3574 115.362 80.8139 115.608 81.1265C116.376 82.1034 117.253 82.9902 118.221 83.7698C118.536 84.0243 118.998 83.987 119.271 83.6868C119.996 82.8845 121.112 82.4378 122.206 82.4378ZM128.589 76.6449C125.434 76.6449 122.867 74.0777 122.867 70.9226C122.867 67.7675 125.434 65.2002 128.589 65.2002C131.745 65.2002 134.312 67.7675 134.312 70.9226C134.312 74.0777 131.745 76.6449 128.589 76.6449ZM128.589 65.5198C125.61 65.5198 123.187 67.9431 123.187 70.9226C123.187 73.902 125.61 76.3254 128.589 76.3254C131.567 76.3254 133.991 73.902 133.991 70.9226C133.991 67.9431 131.569 65.5198 128.589 65.5198ZM57.6254 109.3C56.9006 109.622 56.1496 109.905 55.3943 110.141C54.7207 110.352 53.9973 110 53.7483 109.338C53.0968 107.619 51.43 106.492 49.6015 106.532C47.8586 106.569 46.1338 107.853 45.5874 109.52C45.3661 110.192 44.6579 110.575 43.9759 110.394C42.4724 109.995 41.0145 109.425 39.6451 108.699C39.031 108.377 38.7668 107.625 39.0434 106.987C39.7682 105.32 39.3796 103.363 38.0766 102.117C36.7874 100.886 34.8675 100.559 33.3087 101.301C32.6959 101.573 31.7733 101.453 31.4192 100.848C30.6211 99.4858 29.9807 98.0389 29.5173 96.5506C29.3043 95.8604 29.6293 95.184 30.303 94.9115C32.0513 94.1342 33.162 92.5034 33.1261 90.7591C33.0873 88.9291 31.8867 87.3136 30.1397 86.7409C29.4703 86.5196 29.0871 85.8128 29.2669 85.1322C29.6639 83.6218 30.2393 82.1487 30.978 80.753C31.3058 80.1403 32.0596 79.8774 32.6945 80.1555C34.2811 80.8526 36.378 80.4404 37.5717 79.1941C38.818 77.8925 39.1195 75.9201 38.3228 74.2865C38.0199 73.6613 38.2509 72.8978 38.8512 72.5478C40.1873 71.7663 41.619 71.1356 43.1045 70.6694C43.7795 70.4592 44.503 70.8119 44.7505 71.4717C45.4007 73.1896 47.066 74.3183 48.8946 74.281C50.6402 74.2409 52.3665 72.9559 52.9101 71.2946C53.13 70.6238 53.8354 70.2393 54.5174 70.4191C56.0098 70.8105 57.4691 71.3804 58.8523 72.1094C59.4679 72.433 59.7321 73.1855 59.454 73.8232C58.7306 75.4871 59.1193 77.4444 60.4209 78.692C61.6934 79.9093 63.576 80.2246 65.2178 79.4943C65.814 79.2287 66.7242 79.356 67.0797 79.9604C67.8778 81.3229 68.5182 82.7683 68.9816 84.2581C69.1918 84.9358 68.8294 85.6758 68.1724 85.9055L67.9483 85.9981C66.3714 86.6994 65.334 88.3288 65.3714 90.0495C65.4101 91.8781 66.6107 93.4923 68.3591 94.0664C69.03 94.2863 69.4131 94.9931 69.2319 95.675C68.8308 97.1938 68.2554 98.6669 67.5209 100.054C67.1862 100.675 66.4489 100.931 65.8043 100.652C64.2164 99.9547 62.1181 100.368 60.9244 101.613C59.6781 102.915 59.3766 104.886 60.1747 106.517C60.479 107.142 60.2466 107.905 59.6477 108.255C58.9962 108.644 58.3157 108.993 57.6254 109.3ZM47.8807 106.533C48.4243 106.291 49.0067 106.15 49.5918 106.138C51.5877 106.093 53.4053 107.323 54.1162 109.199C54.2007 109.423 54.368 109.607 54.5839 109.713C54.7997 109.818 55.0477 109.836 55.2767 109.764C56.7236 109.313 58.1386 108.688 59.4485 107.922C59.8718 107.676 60.035 107.136 59.8206 106.695C58.9505 104.916 59.2811 102.767 60.6408 101.346C61.9438 99.9879 64.2316 99.5356 65.962 100.296C66.4157 100.493 66.9372 100.312 67.1737 99.8731C67.8944 98.5134 68.4587 97.0679 68.8515 95.5796C68.9129 95.3477 68.8834 95.1011 68.769 94.8903C68.6545 94.6794 68.4639 94.5203 68.236 94.4454C66.3299 93.8188 65.0201 92.058 64.9772 90.0634C64.9371 88.1864 66.0685 86.4089 67.792 85.6426L68.0313 85.5431C68.5016 85.3771 68.7533 84.857 68.6053 84.3798C68.1455 82.9081 67.5194 81.4937 66.7394 80.1638C66.5001 79.7571 65.8112 79.6644 65.3769 79.8581C63.5884 80.6534 61.5371 80.309 60.1484 78.9797C58.7278 77.6187 58.3032 75.4844 59.093 73.6696C59.2894 73.2201 59.1027 72.6903 58.6684 72.4607C57.3114 71.7442 55.8798 71.1868 54.4164 70.8022C54.1843 70.7409 53.9376 70.7708 53.7269 70.8858C53.5162 71.0008 53.3575 71.1922 53.2835 71.4205C52.6902 73.2339 50.8076 74.6337 48.9029 74.678C46.907 74.7181 45.0908 73.487 44.3826 71.6142C44.2083 71.148 43.6979 70.899 43.2221 71.0484C41.7642 71.5049 40.3616 72.1246 39.0504 72.8909C38.6271 73.1385 38.4639 73.6765 38.6783 74.1178C39.5469 75.898 39.2163 78.0488 37.8566 79.4694C36.5537 80.8277 34.2658 81.2786 32.5368 80.5179C32.0887 80.3214 31.5561 80.5068 31.3251 80.9397C30.6003 82.3077 30.036 83.7518 29.6473 85.2346C29.5201 85.7146 29.7912 86.2139 30.2628 86.3702C32.1675 86.9954 33.476 88.7576 33.5189 90.755C33.559 92.6569 32.357 94.4315 30.4579 95.2767C29.9668 95.4772 29.7414 95.942 29.8935 96.4372C30.3486 97.8965 30.9766 99.3156 31.7595 100.653C31.9974 101.06 32.7 101.146 33.1454 100.946C34.8523 100.133 36.9423 100.491 38.3491 101.836C39.771 103.196 40.1956 105.33 39.4045 107.146C39.2094 107.596 39.3962 108.125 39.8291 108.354C41.1736 109.064 42.6024 109.623 44.0783 110.015C44.5597 110.142 45.0576 109.871 45.2139 109.398C45.6247 108.138 46.6552 107.078 47.8807 106.533ZM52.1507 96.8522C48.6111 98.4262 44.4518 96.8273 42.8777 93.289C41.3036 89.7494 42.9026 85.5901 46.4408 84.016C49.9804 82.4419 54.1398 84.0409 55.7138 87.5791C57.2879 91.1174 55.6903 95.2781 52.1507 96.8522ZM46.6013 84.3742C43.2608 85.8598 41.7518 89.7867 43.2373 93.1272C44.7229 96.4676 48.6498 97.9767 51.9902 96.4911C55.3307 95.0056 56.8398 91.0786 55.3542 87.7382C53.8686 84.3978 49.9431 82.8887 46.6013 84.3742Z" fill="#FFBE55"/>
<path id="Vector_3" d="M52.3286 22.3167H127.081V132.153H52.3286V22.3167Z" fill="#F7F7F7"/>
<path id="Vector_4" d="M56.5024 26.9255H122.91V127.544H56.5024V26.9255Z" fill="white"/>
<path id="Vector_5" opacity="0.1" d="M117.377 50.209H62.0348C61.1219 50.209 60.375 49.4621 60.375 48.5492V37.2456C60.375 36.3327 61.1219 35.5858 62.0348 35.5858H117.378C118.291 35.5858 119.038 36.3327 119.038 37.2456V48.5492C119.037 49.4621 118.29 50.209 117.377 50.209ZM78.9874 55.847H61.4511C60.8591 55.847 60.375 55.3629 60.375 54.7708C60.375 54.1788 60.8591 53.6947 61.4511 53.6947H78.9874C79.5794 53.6947 80.0636 54.1788 80.0636 54.7708C80.0636 55.3629 79.5794 55.847 78.9874 55.847ZM117.961 62.0617H61.4511C60.8591 62.0617 60.375 61.5776 60.375 60.9856C60.375 60.3936 60.8591 59.9095 61.4511 59.9095H117.961C118.553 59.9095 119.037 60.3936 119.037 60.9856C119.037 61.5762 118.553 62.0617 117.961 62.0617ZM117.961 67.0122H61.4511C60.8591 67.0122 60.375 66.5281 60.375 65.9361C60.375 65.3441 60.8591 64.86 61.4511 64.86H117.961C118.553 64.86 119.037 65.3441 119.037 65.9361C119.037 66.5281 118.553 67.0122 117.961 67.0122ZM117.961 71.9627H61.4511C60.8591 71.9627 60.375 71.4786 60.375 70.8866C60.375 70.2946 60.8591 69.8105 61.4511 69.8105H117.961C118.553 69.8105 119.037 70.2946 119.037 70.8866C119.037 71.4786 118.553 71.9627 117.961 71.9627ZM117.961 76.9146H61.4511C60.8591 76.9146 60.375 76.4305 60.375 75.8385C60.375 75.2465 60.8591 74.7623 61.4511 74.7623H117.961C118.553 74.7623 119.037 75.2465 119.037 75.8385C119.037 76.4305 118.553 76.9146 117.961 76.9146ZM117.961 81.8651H61.4511C60.8591 81.8651 60.375 81.381 60.375 80.789C60.375 80.197 60.8591 79.7128 61.4511 79.7128H117.961C118.553 79.7128 119.037 80.197 119.037 80.789C119.037 81.381 118.553 81.8651 117.961 81.8651ZM117.961 86.817H61.4511C60.8591 86.817 60.375 86.3329 60.375 85.7408C60.375 85.1488 60.8591 84.6647 61.4511 84.6647H117.961C118.553 84.6647 119.037 85.1488 119.037 85.7408C119.037 86.3329 118.553 86.817 117.961 86.817ZM117.961 91.7675H61.4511C60.8591 91.7675 60.375 91.2834 60.375 90.6913C60.375 90.0993 60.8591 89.6152 61.4511 89.6152H117.961C118.553 89.6152 119.037 90.0993 119.037 90.6913C119.037 91.2834 118.553 91.7675 117.961 91.7675ZM117.961 96.7194H61.4511C60.8591 96.7194 60.375 96.2352 60.375 95.6432C60.375 95.0512 60.8591 94.5671 61.4511 94.5671H117.961C118.553 94.5671 119.037 95.0512 119.037 95.6432C119.037 96.2339 118.553 96.7194 117.961 96.7194ZM117.961 101.67H61.4511C60.8591 101.67 60.375 101.186 60.375 100.594C60.375 100.002 60.8591 99.5176 61.4511 99.5176H117.961C118.553 99.5176 119.037 100.002 119.037 100.594C119.037 101.186 118.553 101.67 117.961 101.67ZM93.4226 106.622H61.4511C60.8591 106.622 60.375 106.138 60.375 105.546C60.375 104.954 60.8591 104.469 61.4511 104.469H93.4226C94.0146 104.469 94.4987 104.954 94.4987 105.546C94.4987 106.136 94.0146 106.622 93.4226 106.622Z" fill="#FFBE55"/>
<path id="Vector_6" d="M111.001 124.54C115.796 124.54 119.683 120.653 119.683 115.857C119.683 111.062 115.796 107.175 111.001 107.175C106.206 107.175 102.318 111.062 102.318 115.857C102.318 120.653 106.206 124.54 111.001 124.54Z" fill="#FFBE55"/>
<path id="Vector_7" d="M111.727 123.725C116.522 123.725 120.409 119.838 120.409 115.043C120.409 110.248 116.522 106.36 111.727 106.36C106.932 106.36 103.044 110.248 103.044 115.043C103.044 119.838 106.932 123.725 111.727 123.725Z" stroke="#FFBE55" stroke-miterlimit="10"/>
<path id="Vector_8" d="M78.8823 86.4007L79.224 89.3856C79.224 89.3856 81.296 89.4133 82.0927 88.499C81.9475 87.9485 81.5768 87.5307 81.5768 87.5307C81.5768 87.5307 81.7732 87.5695 82.4745 87.3855C82.0208 87.0411 79.8782 85.828 79.8782 85.828L78.8823 86.4007Z" fill="#FCD2B1"/>
<path id="Vector_9" d="M82.5807 88.0951C82.5807 88.0951 82.1574 86.9789 81.7189 87.0923C81.2804 87.2057 79.5971 88.647 80.1877 89.2238C80.8433 89.8642 80.7341 90.4632 80.7341 90.4632C80.7341 90.4632 82.7964 89.6194 82.5807 88.0951Z" fill="#FCD2B1"/>
<path id="Vector_10" d="M115.893 96.2629H109.421C109.086 96.2629 108.815 95.9918 108.815 95.6571V91.8782C108.815 91.5434 109.087 91.2723 109.421 91.2723H115.893C116.228 91.2723 116.499 91.5448 116.499 91.8782V95.6571C116.499 95.9918 116.226 96.2629 115.893 96.2629ZM109.645 95.433H115.669V92.1023H109.645V95.433Z" fill="#9ACFF7"/>
<path id="Vector_11" d="M119.298 94.3845V101.825C119.298 102.164 119.022 102.44 118.683 102.44H106.63C106.291 102.44 106.014 102.164 106.014 101.825V94.3845C106.014 94.0457 106.291 93.769 106.63 93.769H118.683C119.022 93.769 119.298 94.0457 119.298 94.3845Z" fill="#CCE9FF"/>
<path id="Vector_12" d="M119.298 94.3845V98.1054H106.014V94.3845C106.014 94.0457 106.291 93.769 106.63 93.769H118.683C119.022 93.769 119.298 94.0457 119.298 94.3845Z" fill="#9ACFF7"/>
<path id="Vector_13" d="M111 97.5465H114.312V99.2562H111V97.5465Z" fill="#2A94F4"/>
<path id="Vector_14" d="M97.3549 87.4519L95.8389 131.539H98.9953C98.9953 131.539 103.698 110.943 101.473 107.488C103.541 101.129 106.81 87.6815 106.81 87.6815L97.3549 87.4519Z" fill="#0D517F"/>
<path id="Vector_15" d="M98.2612 87.6815L100.491 92.2973L109.505 132.427H112.656C112.656 132.427 112.631 112.123 109.229 108.654C108.828 101.169 109.395 91.2944 107.778 86.1904C101.325 84.7394 98.2612 87.6815 98.2612 87.6815Z" fill="#0E538C"/>
<path id="Vector_16" d="M100.731 66.8739C98.1167 71.4205 93.9325 78.941 89.2144 81.3354C89.4979 82.3659 90.1024 83.2898 90.1024 83.2898C90.1024 83.2898 97.5482 80.6285 99.9356 76.8773C102.323 73.126 100.731 66.8739 100.731 66.8739Z" fill="#0B3A54"/>
<path id="Vector_17" d="M112.576 89.0979C112.084 89.3856 111.002 93.2005 111.002 93.2005C111.002 93.2005 112.961 93.6293 114.113 92.6693C114.842 90.4036 113.345 88.0992 113.345 88.0992L112.576 89.0979ZM102.04 58.2801C101.971 59.0491 101.475 61.7187 101.475 61.7187L106.812 59.0049L106.558 58.3202L105.172 55.4306C105.172 55.4306 103.827 55.4763 103.692 55.4306C103.555 55.385 102.04 58.2801 102.04 58.2801Z" fill="#FCD2B1"/>
<path id="Vector_18" d="M107.744 47.0539C109.089 49.4925 110.771 47.8949 109.719 50.8785C110.049 51.3834 111.863 52.4761 108.165 56.2163C106.988 58.1085 106.556 58.3174 106.556 58.3174C106.556 58.3174 105.705 57.0877 105.17 56.0835L102.658 48.4814L107.744 47.0539Z" fill="#0E538C"/>
<path id="Vector_19" d="M99.9228 49.8037C99.9228 49.8037 97.1813 52.1151 98.7402 58.5138C100.945 58.8361 102.988 57.9757 102.988 57.9757L105.171 56.0863C105.171 56.0863 104.709 49.2657 102.396 48.9973C100.085 48.7276 99.9228 49.8037 99.9228 49.8037Z" fill="#FFE3CA"/>
<path id="Vector_20" d="M102.743 50.2063C101.061 50.2906 96.7215 48.5243 98.261 46.5919C99.8005 44.6596 101.357 47.1798 102.406 46.8022C103.458 46.4232 106.4 44.6167 107.744 47.0539C107.744 47.0539 108.501 49.996 102.743 50.2063Z" fill="#0E538C"/>
<path id="Vector_21" d="M105.842 53.7161C106.294 53.0855 106.327 52.3345 105.915 52.0388C105.503 51.7432 104.802 52.0147 104.349 52.6453C103.897 53.276 103.864 54.0269 104.277 54.3226C104.689 54.6183 105.39 54.3467 105.842 53.7161Z" fill="#FFE3CA"/>
<path id="Vector_22" d="M102.658 49.5244C102.419 51.4982 102.536 52.6061 102.856 52.9312C103.068 53.4181 103.206 54.3102 103.206 54.3102H104.015C104.015 54.3102 105.153 52.028 105.17 51.2976C105.185 50.5673 104.826 48.9531 104.826 48.9531L102.658 49.5244Z" fill="#0E538C"/>
<path id="Vector_23" d="M107.777 61.7187V58.3202C107.777 58.3202 100.746 60.8321 100.349 61.7187C99.9523 62.6053 96.6976 71.8313 96.6976 71.8313C96.6976 71.8313 96.6852 92.4895 96.7087 93.2005C97.9965 91.542 101.715 88.185 101.715 88.185L110.454 93.2005C110.454 93.2005 107.615 82.4267 107.488 81.6922C107.361 80.9577 109.227 73.541 109.227 73.541L107.777 61.7187Z" fill="#0B4870"/>
<path id="Vector_24" d="M107.404 62.1019C104.263 62.4214 103.045 63.575 103.045 64.8572C105.097 69.408 113.172 77.0598 112.083 89.3856C113.108 89.4686 114.519 89.3856 114.519 89.3856C114.519 89.3856 119.132 73.8314 107.404 62.1019Z" fill="#125D87"/>
<path id="Vector_25" d="M90.1906 82.2082C90.1615 82.1888 90.1338 82.1708 90.1076 82.1515C89.6041 81.8084 89.4104 81.6106 89.2154 81.334C89.0107 81.0435 88.1614 80.5082 87.752 80.9024C87.3425 81.2953 87.3052 82.0671 87.402 82.3576C87.5002 82.648 87.3743 83.8902 87.5791 84.1267C87.7838 84.3632 88.539 84.8031 89.1684 84.7394C89.7977 84.6772 90.1906 84.0008 90.3316 83.4185C90.4741 82.8375 90.1906 82.2082 90.1906 82.2082Z" fill="#EDBC9A"/>
<path id="Vector_26" d="M95.8392 131.616L88.6963 134.733H99.2266L98.997 131.616H95.8392ZM109.408 131.616L102.264 134.733H112.795L112.565 131.616H109.408Z" fill="#0B4870"/>
<path id="Vector_27" d="M126.382 31.8456H108.986C107.045 31.8456 105.459 33.4335 105.459 35.3728V39.6925C105.459 41.6332 107.047 43.2197 108.986 43.2197H109.944L108.155 46.2835L112.459 43.2197H126.382C128.323 43.2197 129.91 41.6318 129.91 39.6925V35.3728C129.91 33.4321 128.323 31.8456 126.382 31.8456ZM105.68 16.3551H97.266C93.1869 16.3551 89.8506 19.6927 89.8506 23.7704C89.8506 27.8246 93.1468 31.1429 97.1913 31.1844C99.0835 32.4003 101.474 33.9093 101.474 33.9093L100.032 31.1858H105.681C109.76 31.1858 113.097 27.8481 113.097 23.7704C113.097 19.6927 109.759 16.3551 105.68 16.3551Z" fill="#FFBE55"/>
<path id="Vector_28" d="M75.1235 50.9629C74.1304 49.4344 72.9394 47.7677 71.144 47.4551C70.0444 47.2628 68.9254 47.6321 67.9073 48.0899C66.1244 48.8908 64.3788 50.0915 63.6498 51.9048C62.9389 53.6753 63.3262 55.6658 63.5779 57.5566C63.8296 59.4475 63.8725 61.5652 62.6581 63.0355C61.3523 64.6137 59.0797 64.8918 57.2636 65.8393C55.511 66.7549 54.1389 68.3761 53.5303 70.2586C53.2246 71.202 53.1126 72.2587 53.5054 73.1689C53.9342 74.1592 54.8886 74.8204 55.8693 75.2713C60.0438 77.1898 65.264 75.9768 68.6529 72.8742C72.0417 69.7717 73.7016 65.0757 73.7486 60.4821C73.7652 58.8472 73.5965 57.1845 73.9852 55.5966C74.2023 54.7086 74.5882 53.869 74.7874 52.9768L75.1235 50.9629Z" fill="#0E538C"/>
<path id="Vector_29" d="M69.1313 68.9916C72.0568 76.0197 75.5162 82.6287 78.9231 87.0024C80.2496 87.0757 81.02 86.326 81.02 86.326C81.02 86.326 73.7471 73.5493 74.2962 69.621C74.8468 65.6913 69.1313 68.9916 69.1313 68.9916Z" fill="#1989DD"/>
<path id="Vector_30" d="M78.0752 79.6356L84.7333 83.5669L79.304 92.762L72.6459 88.8307L78.0752 79.6356Z" fill="#CCE9FF"/>
<path id="Vector_31" d="M78.2417 80.2184L84.1435 83.7031L79.2346 92.0168L73.3328 88.5321L78.2417 80.2184Z" fill="white"/>
<path id="Vector_32" d="M80.1419 80.4238L83.0397 82.1349C83.0778 82.1573 83.1111 82.187 83.1377 82.2223C83.1643 82.2575 83.1837 82.2977 83.1947 82.3405C83.2058 82.3833 83.2083 82.4278 83.2021 82.4716C83.1959 82.5153 83.1812 82.5574 83.1587 82.5955L82.6925 83.3853C82.6701 83.4234 82.6404 83.4567 82.6052 83.4832C82.5699 83.5098 82.5297 83.5292 82.4869 83.5403C82.4441 83.5513 82.3996 83.5538 82.3558 83.5476C82.3121 83.5415 82.27 83.5267 82.2319 83.5042L79.3341 81.7932C79.296 81.7708 79.2627 81.7411 79.2362 81.7058C79.2096 81.6705 79.1902 81.6304 79.1791 81.5876C79.1681 81.5448 79.1656 81.5003 79.1718 81.4565C79.1779 81.4128 79.1927 81.3707 79.2152 81.3326L79.6813 80.5428C79.7767 80.3823 79.9828 80.3284 80.1419 80.4238Z" fill="#0E538C"/>
<path id="Vector_33" d="M77.8966 81.7116L82.9993 84.7242C83.0671 84.7643 83.0892 84.8515 83.0491 84.9193C83.009 84.987 82.9218 85.0092 82.8541 84.9691L77.7514 81.9564C77.6836 81.9163 77.6615 81.8292 77.7016 81.7614C77.7403 81.6936 77.8289 81.6715 77.8966 81.7116ZM77.425 82.5111L82.5276 85.5237C82.5954 85.5638 82.6175 85.651 82.5774 85.7188C82.5373 85.7865 82.4502 85.8087 82.3824 85.7686L77.2797 82.7559C77.212 82.7158 77.1898 82.6287 77.2299 82.5609C77.2687 82.4931 77.3572 82.471 77.425 82.5111ZM76.9533 83.3092L82.0559 86.3218C82.1237 86.3619 82.1459 86.4491 82.1057 86.5169C82.0656 86.5846 81.9785 86.6068 81.9107 86.5667L76.8081 83.554C76.7403 83.5139 76.7182 83.4268 76.7583 83.359C76.797 83.2912 76.8855 83.2691 76.9533 83.3092ZM76.4816 84.1087L81.5843 87.1213C81.6521 87.1614 81.6742 87.2486 81.6341 87.3164C81.594 87.3841 81.5068 87.4063 81.439 87.3662L76.3364 84.3535C76.2686 84.3134 76.2465 84.2263 76.2866 84.1585C76.3253 84.0907 76.4139 84.0686 76.4816 84.1087ZM76.01 84.9068L81.1126 87.9194C81.1804 87.9595 81.2025 88.0467 81.1624 88.1145C81.1223 88.1822 81.0351 88.2044 80.9674 88.1643L75.8647 85.1516C75.7969 85.1115 75.7748 85.0244 75.8149 84.9566C75.8537 84.8902 75.9422 84.8667 76.01 84.9068ZM75.5383 85.7063L80.6409 88.7189C80.7087 88.759 80.7308 88.8462 80.6907 88.914C80.6506 88.9817 80.5635 89.0039 80.4957 88.9638L75.393 85.9511C75.3253 85.911 75.3031 85.8239 75.3432 85.7561C75.382 85.6883 75.4705 85.6662 75.5383 85.7063ZM75.0265 86.4809L78.479 88.5198C78.5246 88.5474 78.5302 88.6235 78.49 88.6913C78.4499 88.759 78.3808 88.7922 78.3337 88.7646L74.8813 86.7257C74.8356 86.6981 74.8301 86.622 74.8702 86.5542C74.9103 86.4878 74.9808 86.4546 75.0265 86.4809Z" fill="#CCE9FF"/>
<path id="Vector_34" d="M78.8374 91.2433C79.2988 91.2433 79.6729 90.8692 79.6729 90.4078C79.6729 89.9464 79.2988 89.5724 78.8374 89.5724C78.376 89.5724 78.002 89.9464 78.002 90.4078C78.002 90.8692 78.376 91.2433 78.8374 91.2433Z" fill="#FFBE55"/>
<path id="Vector_35" d="M71.3563 129.593L73.0479 132.03C73.4228 132.569 73.9027 133.027 74.4588 133.374L76.636 134.733H71.1917L69.4225 132.655V134.733H68.6147V129.593H71.3563Z" fill="#FFBE55"/>
<path id="Vector_36" d="M73.9093 103.88C73.6534 104.799 71.3559 129.5 71.3559 129.5C71.3559 129.5 68.5466 130.304 68.6323 129.5C68.7181 128.696 65.7387 108.936 69.5688 103.88C72.2066 101.812 73.9093 103.88 73.9093 103.88Z" fill="#F7C39F"/>
<path id="Vector_37" d="M69.9505 129.593L71.6422 132.03C72.017 132.569 72.497 133.027 73.053 133.374L75.2302 134.733H69.7859L68.0168 132.655V134.733H67.209V129.593H69.9505Z" fill="#FFBE55"/>
<path id="Vector_38" d="M72.5045 103.88C72.2486 104.799 69.9511 129.5 69.9511 129.5C69.9511 129.5 67.1418 130.304 67.2276 129.5C67.3133 128.696 64.3339 108.936 68.164 103.88C70.8018 101.812 72.5045 103.88 72.5045 103.88Z" fill="#FCD2B1"/>
<path id="Vector_39" d="M68.351 81.4958C66.3785 83.673 63.5278 85.8792 65.7091 92.5241C66.6759 95.4718 66.7907 98.631 66.1005 101.655C65.2194 105.518 64.4365 110.26 64.4365 110.26L74.3417 110.538C74.3417 110.538 77.4539 87.5584 75.1259 81.4958C72.2364 80.4211 68.351 81.4958 68.351 81.4958Z" fill="#0E538C"/>
<path id="Vector_40" d="M72.2025 62.4476C73.3644 64.1365 77.3079 70.141 77.0825 70.9779C76.8141 71.9766 75.1225 81.4958 75.1225 81.4958H68.3489C68.3489 81.4958 69.2037 79.3145 68.49 77.8607C67.7763 76.407 62.094 66.1546 69.2978 60.8597C70.5399 61.3328 72.2025 62.4476 72.2025 62.4476Z" fill="#2A94F4"/>
<path id="Vector_41" d="M72.5581 59.8832C72.4032 61.0866 72.2095 62.0175 72.7517 63.7645C71.161 63.0659 69.414 61.6302 69.2979 61.0866C69.8415 59.8057 70.4238 58.9758 69.9576 57.8775C70.7336 57.9813 72.5581 59.8832 72.5581 59.8832Z" fill="#FCD2B1"/>
<path id="Vector_42" d="M75.1822 52.0598C75.8738 54.4112 75.7022 61.1322 73.8833 60.8514C72.0644 60.572 69.8969 59.6619 69.0573 57.3547C68.2191 55.0475 69.8361 48.0236 75.1822 52.0598Z" fill="#FFE3CA"/>
<path id="Vector_43" d="M69.028 57.8508C69.3495 57.6651 69.3696 57.0979 69.0728 56.5839C68.776 56.0698 68.2748 55.8036 67.9533 55.9892C67.6317 56.1749 67.6117 56.7421 67.9085 57.2561C68.2053 57.7702 68.7065 58.0364 69.028 57.8508Z" fill="#FFE3CA"/>
<path id="Vector_44" d="M67.3873 57.0158C71.5134 55.8968 74.7833 53.7182 75.5579 51.6905C76.3311 49.6627 71.0859 48.6128 70.0375 49.8024C68.989 50.9919 65.2336 54.5634 67.3873 57.0158Z" fill="#0E538C"/>
<path id="Vector_45" d="M69.0436 58.5705C69.4263 58.5705 69.7366 58.2603 69.7366 57.8775C69.7366 57.4948 69.4263 57.1845 69.0436 57.1845C68.6608 57.1845 68.3506 57.4948 68.3506 57.8775C68.3506 58.2603 68.6608 58.5705 69.0436 58.5705Z" fill="#FFBE55"/>
<path id="Vector_46" d="M69.7362 62.1254C68.2036 61.7975 66.2007 65.0273 66.3944 65.7037C66.588 66.3801 71.5496 85.0202 86.7746 83.7629C86.823 83.5692 86.7746 82.2164 86.7746 82.2164C86.7746 82.2164 74.0657 83.9192 69.7362 62.1254Z" fill="#34A2F4"/>
<path id="Vector_47" d="M57.9695 30.1857H48.536C44.1402 30.1857 40.5757 33.7503 40.5757 38.1461C40.5757 42.5419 44.1402 46.1064 48.536 46.1064H51.5113C53.8448 47.8451 59.3237 51.9118 59.1093 51.6171C58.9225 51.3599 56.9639 48.119 55.7522 46.1064H57.9695C62.3653 46.1064 65.9299 42.5419 65.9299 38.1461C65.9299 33.7503 62.3653 30.1857 57.9695 30.1857ZM78.7688 22.7247C78.7688 17.9983 74.9373 14.1668 70.2109 14.1668C65.4845 14.1668 61.653 17.9983 61.653 22.7247C61.653 27.4511 65.4845 31.2826 70.2109 31.2826C70.7448 31.2826 71.2663 31.2314 71.7725 31.1374L70.8402 35.5872L76.4118 28.6213L76.4076 28.6227C77.8711 27.0874 78.7688 25.0112 78.7688 22.7247Z" fill="#FFBE55"/>
<path id="Vector_48" d="M86.6556 82.4903C86.7815 82.453 87.4454 82.4046 87.5229 82.2967C87.6004 82.1888 87.8798 81.3824 88.1122 81.3367C88.3445 81.2897 88.5465 82.6356 88.1122 83.341C87.6944 83.8929 87.3071 83.6135 87.1826 83.6287C87.0582 83.6439 86.4385 83.6135 86.4385 83.6135L86.6556 82.4903Z" fill="#FCD2B1"/>
</g>
</g>
</svg>
