<svg width="127" height="101" viewBox="0 0 127 101" fill="none" xmlns="http://www.w3.org/2000/svg">
<g id="Group 126">
<path id="Vector" opacity="0.1" d="M87.7121 94.051C90.3371 92.8086 132.15 93.3971 125.499 62.9438C118.847 32.4904 76.3621 36.1149 66.0117 14.947C55.6613 -6.21151 27.8516 2.85911 12.1298 18.5715C-3.84415 34.5455 -19.3137 106.849 72.5601 74.2563C108.31 61.5706 85.9465 92.9394 85.9465 92.9394" fill="#2A94F4"/>
<path id="Vector_2" d="M63.9755 5.41864C58.9684 4.58724 54.008 7.18419 51.8688 11.7896C51.243 13.1347 50.7012 14.7041 50.2995 16.5257C48.2163 26.0167 47.0673 32.4904 38.389 38.9734C29.7108 45.4564 48.7114 65.5593 58.4172 57.236C68.1231 48.9128 84.5455 59.3753 88.2541 53.2192C91.9533 47.0631 85.2648 40.3559 88.4876 35.2648C91.7104 30.1737 94.7464 11.4346 85.956 5.1851C77.1563 -1.06438 66.0773 -2.44692 63.9755 5.41864Z" fill="#FFBE55"/>
<path id="Vector_3" d="M61.3877 44.7558C61.3877 44.7558 40.3506 42.8501 44.5169 92.8086H90.337C90.337 92.8086 94.6715 45.7927 73.4569 44.7558H61.3877Z" fill="#2A94F4"/>
<path id="Vector_4" d="M62.7985 30.2391C62.7985 30.2391 61.1824 46.1477 61.4066 49.3892C61.6308 52.6307 71.402 55.4051 73.2049 50.7811C74.2979 47.9786 71.402 30.2484 71.402 30.2484H62.7985V30.2391Z" fill="#FCD2B1"/>
<path id="Vector_5" d="M81.1169 10.519C81.1169 10.519 92.9152 37.7309 75.0916 40.2344C70.4862 40.879 63.835 35.7878 62.7981 32.0886C61.8827 28.8471 60.332 31.3319 59.1456 28.5669C57.5295 24.7929 58.6412 13.9194 62.1069 20.9162C64.6571 26.0633 69.9724 11.3504 75.0636 13.6671C80.1547 15.9838 81.1169 10.519 81.1169 10.519Z" fill="#FFE3CA"/>
<path id="Vector_6" d="M54.1852 99.9081L37.4545 47.0632C37.4545 47.0632 24.0495 53.2286 15.9971 58.4505C15.9971 58.4505 20.9201 71.9583 24.5726 79.3568C28.2251 86.7553 30.1121 89.1467 36.1748 92.2481C42.2467 95.3495 54.1852 99.9081 54.1852 99.9081Z" fill="#0E538C"/>
<path id="Vector_7" d="M54.1852 99.9081L37.4546 47.0632C37.4546 47.0632 51.962 44.3915 61.5557 44.0272C61.5557 44.0272 65.3017 57.9087 66.5721 66.0638C67.8426 74.2096 67.6744 77.2549 64.4983 83.2896C61.3315 89.3055 54.1852 99.9081 54.1852 99.9081Z" fill="#0E538C"/>
<path id="Vector_8" d="M18.333 59.2351C19.6969 62.9063 23.4241 72.6962 26.292 78.5067C29.739 85.4941 31.3738 87.6333 37.0534 90.5479C41.7335 92.9393 50.1129 96.2742 53.4478 97.5727L38.0343 48.894C36.3808 49.6694 25.6568 54.7045 18.333 59.2351Z" fill="#F9F3ED"/>
<path id="Vector_9" d="M62.8079 82.3927C65.7785 76.7411 65.8813 74.0507 64.6762 66.3533C63.686 59.9544 61.0891 49.8002 60.0989 46.0075C51.4953 46.5213 39.8278 48.5671 38.0342 48.894L53.4477 97.5727C55.4281 94.5928 60.3604 87.0448 62.8079 82.3927Z" fill="#F9F3ED"/>
<path id="Vector_10" d="M19.7339 59.7209C21.35 64.0086 24.6849 72.6775 27.3192 78.0022C30.6261 84.7001 32.074 86.7085 37.5762 89.5296C41.8453 91.7156 49.2437 94.6955 52.999 96.1715L38.3889 49.9963C36.7074 50.781 26.8334 55.4331 19.7339 59.7209Z" fill="#0E538C"/>
<path id="Vector_11" d="M61.7985 81.8603C64.6757 76.3861 64.7037 73.92 63.5547 66.5308C62.6393 60.6644 60.388 51.6498 59.2389 47.2219C50.9624 47.8011 40.2196 49.6787 38.3887 50.0057L53.0082 96.1715C55.2221 92.7992 59.5659 86.1013 61.7985 81.8603Z" fill="#0E538C"/>
<path id="Vector_12" d="M73.8495 97.3485L103.117 100.553C104.023 100.655 104.835 100.002 104.929 99.0954L110.496 48.2588C110.599 47.3527 109.945 46.54 109.039 46.4466L78.1373 43.0556L72.3829 95.5269C72.2895 96.433 72.9434 97.2458 73.8495 97.3485Z" fill="#D3D3D3"/>
<path id="Vector_13" d="M108.422 46.3812L107.329 46.2597L78.1462 43.0649L77.0533 42.9435C75.8015 42.8034 74.6805 43.7095 74.5404 44.9613L69.1036 94.546C68.9635 95.7978 69.8697 96.9188 71.1214 97.0589L99.1366 100.132C100.388 100.272 101.509 99.3663 101.65 98.1145L104.134 75.452L105.227 75.5734C106.479 75.7135 107.6 74.8074 107.74 73.5557L110.44 48.894C110.571 47.6329 109.674 46.512 108.422 46.3812Z" fill="#F7F7F7"/>
<path id="Vector_14" d="M58.2678 74.2563V65.9517C58.2678 63.2987 60.7153 61.3183 62.6957 61.3183H67.4598C70.7948 61.3183 72.5697 63.2893 72.5697 65.9517V74.2563H76.6519V65.9517C76.6519 61.0474 73.0461 57.236 67.4598 57.236H62.6957C58.4733 57.236 54.1855 61.0474 54.1855 65.9517V74.2563H58.2678Z" fill="#CCE9FF"/>
<path id="Vector_15" d="M78.6878 95.4989C78.6878 97.7502 77.3239 99.4503 75.0819 99.4503H56.4269C54.1756 99.4503 52.1392 97.7502 52.1392 95.4989V75.48C52.1392 73.2287 54.1849 72.8924 56.4269 72.8924H75.0819C77.3332 72.8924 78.6878 73.2287 78.6878 75.48V95.4989Z" fill="#FFBE55"/>
<path id="Vector_16" d="M69.0853 83.3176C69.0853 81.4119 67.5907 79.8425 65.685 79.8425C63.7794 79.8425 62.3501 81.4119 62.3501 83.3176C62.3501 84.6814 63.032 85.7651 64.3959 86.3816V92.7805C64.3959 93.668 64.8723 94.3499 65.7598 94.3499C66.6472 94.3499 67.1236 93.668 67.1236 92.7805V86.3816C68.4781 85.7651 69.0853 84.6721 69.0853 83.3176Z" fill="#FFBE55"/>
<path id="Vector_17" opacity="0.13" d="M69.0853 83.3176C69.0853 81.4119 67.5907 79.8425 65.685 79.8425C63.7794 79.8425 62.3501 81.4119 62.3501 83.3176C62.3501 84.6814 63.032 85.7651 64.3959 86.3816V92.7805C64.3959 93.668 64.8723 94.3499 65.7598 94.3499C66.6472 94.3499 67.1236 93.668 67.1236 92.7805V86.3816C68.4781 85.7651 69.0853 84.6721 69.0853 83.3176Z" fill="black"/>
<path id="Vector_18" d="M47.6745 92.22L53.1486 90.8001C53.1486 90.8001 53.8119 88.1938 55.0636 87.2036C56.3154 86.2134 57.81 85.4661 58.4826 85.5502C59.1459 85.6342 57.7353 87.4652 57.0627 88.2966C56.3901 89.128 57.399 89.3802 60.0613 87.5492C62.7237 85.7183 64.975 85.1298 65.6382 88.8757C66.3015 92.631 62.4714 94.3779 57.81 94.3779C53.1486 94.3779 49.4867 97.0029 49.4867 97.0029C49.4867 97.0029 42.5366 96.3863 47.6745 92.22Z" fill="#FFE3CA"/>
<path id="Vector_19" d="M24.5823 79.3568C24.5823 79.3568 22.5365 79.4688 20.6869 83.1681C18.8373 86.8673 21.2007 104.57 53.4569 97.5727L51.3364 90.8655C51.3271 90.8655 26.4226 83.3362 24.5823 79.3568Z" fill="#2A94F4"/>
<path id="Vector_20" d="M84.0592 92.22L78.5851 90.8001C78.5851 90.8001 77.9218 88.1938 76.6701 87.2036C75.4183 86.2134 73.9237 85.4661 73.2511 85.5502C72.5878 85.6342 73.9984 87.4652 74.671 88.2966C75.3436 89.128 74.3347 89.3802 71.6724 87.5492C69.01 85.7183 66.7587 85.1298 66.0955 88.8757C65.4322 92.631 69.2623 94.3779 73.9237 94.3779C78.5851 94.3779 82.247 97.0029 82.247 97.0029C82.247 97.0029 89.1971 96.3863 84.0592 92.22Z" fill="#FFE3CA"/>
<path id="Vector_21" d="M107.106 79.3568C107.106 79.3568 109.151 79.4688 111.001 83.1681C112.851 86.8673 110.487 104.57 78.231 97.5727L80.3515 90.8655C80.3608 90.8655 105.256 83.3362 107.106 79.3568Z" fill="#2A94F4"/>
</g>
</svg>
