<svg width="139" height="145" viewBox="0 0 139 145" fill="none" xmlns="http://www.w3.org/2000/svg">
<g id="Group 125">
<g id="Group">
<path id="Vector" opacity="0.11" d="M75.2717 143.401C107.071 143.401 132.849 139.892 132.849 135.563C132.849 131.234 107.071 127.725 75.2717 127.725C43.4726 127.725 17.6943 131.234 17.6943 135.563C17.6943 139.892 43.4726 143.401 75.2717 143.401Z" fill="#2A94F4"/>
<path id="Vector_2" opacity="0.11" d="M136.528 91.4678C137.215 108.357 120.681 146.465 72.4016 144.186C26.9105 142.039 -18.1048 105.827 7.40191 48.6762C32.0504 -6.55171 76.4007 -1.96548 92.0345 2.40833C109.321 7.24439 158.705 26.8352 130.453 59.4413C85.1227 111.759 135.126 57.0328 136.528 91.4678Z" fill="#2A94F4"/>
</g>
<path id="Vector_3" d="M53.1668 37.778L43.0915 28.0896L25.4714 46.4136L35.5457 56.101C39.5282 48.4243 45.6695 42.0487 53.1668 37.778ZM30.5446 76.6679C30.5446 72.2519 31.1877 67.9867 32.3799 63.9573H18.4048V89.3786H32.3799C31.1877 85.3493 30.5446 81.084 30.5446 76.6679ZM75.2718 31.9407C79.6878 31.9407 83.953 32.5838 87.9824 33.776V19.8009H62.5612V33.776C66.5906 32.5838 70.8558 31.9407 75.2718 31.9407ZM114.998 56.101L125.072 46.4136L107.452 28.0896L97.3767 37.778C104.874 42.0487 111.015 48.4243 114.998 56.101ZM118.164 63.9573C119.356 67.9867 119.999 72.2519 119.999 76.6679C119.999 81.084 119.356 85.3492 118.164 89.3786H132.139V63.9573H118.164ZM97.3767 115.558L107.452 125.246L125.072 106.922L114.998 97.235C111.015 104.912 104.874 111.287 97.3767 115.558ZM35.5457 97.2348L25.4714 106.922L43.0917 125.246L53.167 115.558C45.6695 111.287 39.5282 104.912 35.5457 97.2348ZM75.2718 121.395C70.8558 121.395 66.5906 120.752 62.5612 119.56V133.535H87.9824V119.56C83.953 120.752 79.6878 121.395 75.2718 121.395Z" fill="#FFBE55"/>
<path id="Vector_4" d="M123.831 75.5455C123.244 48.7312 101.339 27.1707 74.3845 27.1707C68.7085 27.1707 63.2615 28.1391 58.1839 29.8984C54.4919 31.1779 51.0074 32.8935 47.7732 34.966C44.2862 37.2008 41.0918 39.8519 38.2738 42.8632C35.2078 46.1395 32.5749 49.8261 30.4831 53.8421C26.9289 60.6659 24.9102 68.4172 24.9102 76.645C24.9102 78.2018 24.9882 79.74 25.1285 81.2601C27.0695 102.233 42.0964 119.413 61.9722 124.548C65.9388 125.573 70.0975 126.119 74.3845 126.119C101.708 126.119 123.859 103.969 123.859 76.645C123.859 76.2764 123.839 75.9124 123.831 75.5455ZM74.3845 108.857C71.5859 108.857 68.871 108.499 66.2824 107.829C53.0944 104.412 43.206 92.8469 42.265 78.8294C42.2164 78.1057 42.172 77.3808 42.172 76.645C42.172 71.1679 43.5497 66.0177 45.9615 61.5032C47.4716 58.677 49.4001 56.1124 51.6479 53.8671C53.2367 52.2801 54.9953 50.8662 56.8836 49.6349C59.1701 48.1438 61.6502 46.9253 64.2932 46.054C67.549 44.9789 70.9559 44.4315 74.3846 44.4324C91.8061 44.4324 105.988 58.2648 106.569 75.5454C106.581 75.9112 106.597 76.2763 106.597 76.6449C106.597 94.4354 92.1746 108.857 74.3845 108.857Z" fill="#FFBE55"/>
<path id="Vector_5" fill-rule="evenodd" clip-rule="evenodd" d="M50.5056 99.2142C50.5056 99.2142 48.8516 100.449 48.0057 101.08C47.8634 101.186 47.6919 101.246 47.5145 101.251C47.3371 101.255 47.1625 101.205 47.0147 101.107C46.8476 100.996 46.705 100.852 46.5956 100.684C46.4863 100.515 46.4125 100.326 46.3788 100.129C46.3451 99.9309 46.3522 99.7283 46.3997 99.5333C46.4473 99.3384 46.5341 99.1552 46.6551 98.9951L48.1234 97.0503L50.5056 99.2142Z" fill="#FCD2B1"/>
<path id="Vector_6" fill-rule="evenodd" clip-rule="evenodd" d="M79.6596 88.6699C80.8927 89.5771 83.1045 90.5152 83.909 91.5455C89.0758 98.163 83.622 103.247 76.1803 98.1648C64.2198 89.9962 65.5009 86.9425 50.4005 100.242L46.9795 97.5641C58.0697 79.1312 62.3833 75.9619 79.6596 88.6699Z" fill="#0E538C"/>
<path id="Vector_7" fill-rule="evenodd" clip-rule="evenodd" d="M65.6556 119.77L64.6783 123.389C64.6257 123.584 64.5042 123.754 64.3362 123.866C64.1683 123.979 63.9654 124.026 63.7649 124.001C63.4922 123.966 63.2444 123.824 63.0761 123.606C62.9079 123.389 62.8329 123.113 62.8677 122.841L63.4072 118.624L65.6556 119.77Z" fill="#FCD2B1"/>
<path id="Vector_8" fill-rule="evenodd" clip-rule="evenodd" d="M65.5113 123.026C65.5054 122.855 62.1875 122.566 62.1486 122.697C62.1375 122.713 62.1322 122.732 62.1266 122.75C61.5943 124.542 59.8504 125.69 57.9943 125.471C57.8876 125.459 57.7794 125.466 57.6754 125.494C56.5276 125.8 55.8898 126.452 55.7741 127.457C59.0155 127.884 62.3081 127.806 65.6557 127.182L65.5113 123.026ZM48.7048 101.16C48.7838 101.009 46.0406 99.1199 45.9425 99.2145C45.9254 99.2238 45.9101 99.2358 45.8969 99.25C44.5501 100.546 42.4664 100.684 40.96 99.5782C40.8733 99.5145 40.7755 99.4677 40.6715 99.4401C39.5218 99.1405 38.6458 99.3922 38.0493 100.209C40.6578 102.181 43.56 103.737 46.7797 104.846L48.7048 101.16Z" fill="#0B4870"/>
<path id="Vector_9" fill-rule="evenodd" clip-rule="evenodd" d="M84.1996 95.5909C85.7295 95.651 88.087 95.1885 89.3308 95.5909C97.3187 98.1756 94.6129 107.801 85.6015 107.762C71.1179 107.7 70.9449 105.439 66.1547 120.645L62.6447 120.31C61.4991 98.829 62.7694 94.7488 84.1996 95.5909Z" fill="#0E538C"/>
<path id="Vector_10" fill-rule="evenodd" clip-rule="evenodd" d="M86.2969 87.6018C86.2969 87.6018 88.542 89.1239 89.5492 88.0438C90.5562 86.9636 89.858 90.262 89.858 90.262L88.713 91.4677L86.6397 89.4806L84.541 87.2423L86.2969 87.6018ZM97.95 77.2664C96.4923 75.6265 93.8684 72.7475 93.8684 72.7475C93.8684 72.7475 89.3458 74.2062 89.858 77.0299C90.37 79.8539 90.6669 82.1554 90.6669 82.1554L96.4684 80.5599C96.4684 80.5599 99.4078 78.9063 97.95 77.2664Z" fill="#FCD2B1"/>
<path id="Vector_11" fill-rule="evenodd" clip-rule="evenodd" d="M89.8451 77.0299C89.8451 77.0299 91.3595 91.7534 85.9328 92.8891L85.6006 95.5909C85.6006 95.5909 90.6024 94.2775 91.6961 92.0479C92.7898 89.8183 94.1145 78.6422 94.1145 78.6422C92.0815 78.7957 90.6035 78.3203 89.8451 77.0299Z" fill="#0B4870"/>
<path id="Vector_12" fill-rule="evenodd" clip-rule="evenodd" d="M84.4375 64.709C82.4489 66.1477 81.6923 68.7279 82.2694 71.2628C82.3723 71.714 82.8416 73.8538 83.4114 74.6763C86.2885 78.8294 91.1096 77.7409 92.9186 76.4323C95.7085 74.4141 96.0735 70.1487 93.733 66.9137C91.3927 63.6785 87.2274 62.6907 84.4375 64.709Z" fill="#FFE3CA"/>
<path id="Vector_13" fill-rule="evenodd" clip-rule="evenodd" d="M78.2735 68.4121C78.5196 73.5894 86.4746 68.5359 86.7619 67.3561C86.7192 69.0022 87.5146 70.2805 89.0735 71.2236C89.0735 71.2236 88.7342 72.8866 90.2039 73.6403C91.6733 74.3939 94.0191 76.0794 95.2745 74.6452C96.132 73.6656 96.3453 71.5634 96.5338 69.8138C97.3468 62.269 90.9178 63.2178 89.5179 62.5677C89.518 62.5677 77.8497 59.4947 78.2735 68.4121Z" fill="#0B4870"/>
<path id="Vector_14" fill-rule="evenodd" clip-rule="evenodd" d="M88.8979 71.503C88.8979 70.5699 89.6542 69.8138 90.5873 69.8138C91.52 69.8138 92.2766 70.5699 92.2766 71.503V71.6666C92.2766 72.6897 91.4472 73.5189 90.4243 73.5189H88.8979V71.503Z" fill="#FFE3CA"/>
<path id="Vector_15" d="M74.6138 80.2397L87.4859 90.5097L87.8773 90.0141L75.187 79.9919C74.9695 79.9179 74.7442 80.0746 74.6138 80.2397Z" fill="#D3D3D3"/>
<path id="Vector_16" fill-rule="evenodd" clip-rule="evenodd" d="M74.9614 80.2397L87.6819 90.262L85.6047 95.5266L72.8843 85.5042L74.9614 80.2397Z" fill="#F7F7F7"/>
<path id="Vector_17" d="M85.307 95.476C85.1994 95.9898 85.364 96.1448 85.9076 95.8L88.0766 90.2622C87.9813 89.9691 87.7516 89.9307 87.3877 90.1473L85.307 95.476Z" fill="#D3D3D3"/>
<path id="Vector_18" d="M72.5271 85.3876C72.4639 85.5803 72.4812 85.6218 72.6229 85.7511L85.3389 95.936L85.7335 95.443L73.2002 85.4046L75.0497 80.2397H74.614L72.5271 85.3876Z" fill="#D3D3D3"/>
<path id="Vector_19" fill-rule="evenodd" clip-rule="evenodd" d="M86.9092 95.0359C89.2754 95.9747 90.5218 100.96 91.1127 106.642C113.576 100.384 106.097 81.8631 96.857 76.046C96.4658 77.9279 95.151 78.3568 92.9658 78.6421C92.9032 84.7949 92.5371 88.2902 86.9092 95.0359Z" fill="#0B4870"/>
<path id="Vector_20" fill-rule="evenodd" clip-rule="evenodd" d="M88.8061 95.8538C88.233 95.6192 87.6473 95.4164 87.0518 95.2463C86.8041 95.182 86.5738 95.0634 86.3775 94.8992C86.1811 94.735 86.0237 94.5293 85.9165 94.2969C85.491 93.3656 84.7975 92.5635 83.8197 91.8975C83.6357 91.7729 83.4837 91.6066 83.3763 91.412C83.2077 91.1105 82.9763 90.6918 82.9763 90.6918C82.8075 90.391 82.5852 90.2593 82.3526 90.2621C82.2556 90.2615 82.1604 90.2875 82.0773 90.3374C81.9942 90.3874 81.9265 90.4592 81.8816 90.5452C81.8368 90.6311 81.8164 90.7277 81.8229 90.8244C81.8293 90.9211 81.8623 91.0142 81.9182 91.0934C82.2164 91.5467 82.7173 92.2577 83.0466 92.7247C83.062 92.7467 83.0701 92.773 83.0696 92.7999C83.0691 92.8267 83.06 92.8527 83.0438 92.8741C83.0276 92.8955 83.005 92.9112 82.9793 92.9189C82.9535 92.9266 82.926 92.926 82.9007 92.9171C82.7149 92.8486 82.5153 92.8416 82.3074 92.8845C82.1144 92.9227 81.9152 92.9153 81.7256 92.863C81.536 92.8106 81.3613 92.7147 81.2153 92.5828C80.8094 92.2204 80.3389 91.8772 79.7937 91.554C79.4048 91.3233 79.0447 91.7825 79.0696 92.2674L82.0545 94.5369C84.4365 94.7985 86.2958 96.0804 88.0515 97.564C88.0512 97.564 90.3279 96.4746 88.8061 95.8538Z" fill="#FCD2B1"/>
<path id="Vector_21" fill-rule="evenodd" clip-rule="evenodd" d="M93.9176 95.8C92.0238 96.3948 89.8008 96.1999 88.8596 95.8854C88.2249 95.6733 87.2192 97.0282 87.9202 97.4354C89.4692 98.3352 92.4798 99.803 95.0515 100.572C95.5055 98.9505 94.5986 97.1699 93.9176 95.8Z" fill="#FCD2B1"/>
<path id="Vector_22" fill-rule="evenodd" clip-rule="evenodd" d="M94.8481 100.51C99.7927 101.944 109.575 98.8147 103.227 82.3817C102.909 81.5588 100.686 78.9975 97.725 80.0583C96.5509 80.4789 94.0354 82.399 95.6347 85.8184C99.1398 93.313 96.1286 95.1142 93.3579 95.9844C94.5849 97.32 95.3009 98.8898 94.8481 100.51Z" fill="#0E538C"/>
<path id="Vector_23" d="M83.4573 86.2226C83.1191 86.227 82.7481 86.3061 82.6509 86.6154C82.5416 86.9626 82.8863 87.3339 83.2798 87.2622C84.0814 87.1256 84.8905 87.6474 85.6539 88.1721C85.6539 88.1721 86.322 88.3699 86.4409 87.8687C86.5496 87.4095 85.8957 87.0763 85.335 86.7761C84.7511 86.4636 84.1222 86.2138 83.4573 86.2226Z" fill="#FCD2B1"/>
</g>
</svg>
