<svg width="114" height="114" viewBox="0 0 114 114" fill="none" xmlns="http://www.w3.org/2000/svg">
<g id="cloud-storage-svgrepo-com 1" clip-path="url(#clip0_191_2817)">
<path id="cloud--storage_1_" d="M106.162 111.72H86.2123C85.1115 111.72 84.2137 110.822 84.2137 109.721V94.0465C84.2137 92.9457 85.1115 92.0479 86.2123 92.0479H92.2685C92.8955 92.0479 93.4905 92.3472 93.8645 92.853L94.716 94.189H106.162C107.263 94.189 108.161 95.0867 108.161 96.1875V109.725C108.157 110.822 107.26 111.72 106.162 111.72ZM86.7823 109.155H105.589V96.7575H94.406C93.7862 96.7575 93.1948 96.4618 92.8172 95.9667L91.955 94.6165H86.7823V109.155ZM66.9748 111.72H47.0248C45.924 111.72 45.0298 110.822 45.0298 109.721V94.0465C45.0298 92.9457 45.924 92.0479 47.0248 92.0479H53.081C53.7045 92.0479 54.2994 92.3472 54.6735 92.8459L55.532 94.189H66.9748C68.0756 94.189 68.9734 95.0867 68.9734 96.1875V109.725C68.9698 110.822 68.072 111.72 66.9748 111.72ZM47.5948 109.155H66.4048V96.7575H55.2185C54.6022 96.7575 54.0073 96.4618 53.6297 95.9667L52.7675 94.6165H47.5948V109.155ZM27.7873 111.72H7.83729C6.73647 111.72 5.84229 110.822 5.84229 109.721V94.0465C5.84229 92.9457 6.73647 92.0479 7.83729 92.0479H13.8935C14.517 92.0479 15.1119 92.3472 15.486 92.8459L16.3445 94.189H27.7873C28.8881 94.189 29.7823 95.0867 29.7823 96.1875V109.725C29.7823 110.822 28.8881 111.72 27.7873 111.72ZM8.40728 109.155H27.2173V96.7575H16.031C15.4147 96.7575 14.8198 96.4618 14.4422 95.9667L13.58 94.62H8.40728V109.155ZM103.017 101.033H99.7498V98.4675H103.017V101.033ZM63.8291 101.033H60.5623V98.4675H63.8291V101.033ZM24.6416 101.033H21.3748V98.4675H24.6416V101.033ZM97.4698 89.0625H94.9048V74.3138H63.5049C62.9848 76.9393 60.9114 79.0127 58.2858 79.5328V89.0625H55.7208V79.5328C53.0917 79.0127 51.0183 76.9393 50.5018 74.3138H19.0948V89.0625H16.5298V73.0313C16.5298 72.3223 17.1033 71.7488 17.8123 71.7488H50.4982C51.0183 69.1232 53.0917 67.0498 55.7173 66.5297V61.845H32.0623C31.3533 61.845 30.7798 61.2715 30.7798 60.5625V32.0625C30.7798 31.3536 31.3533 30.78 32.0623 30.78H32.1727C31.2999 29.6578 30.7798 28.2471 30.7798 26.7188C30.7798 23.4983 33.0883 20.805 36.1413 20.2137C36.1307 20.007 36.1235 19.8004 36.1235 19.5938C36.1235 13.9757 40.6942 9.40503 46.3123 9.40503C47.3668 9.40503 48.4142 9.57603 49.4366 9.92159C51.2036 5.35447 55.589 2.28003 60.5623 2.28003C65.475 2.28003 69.8533 5.32597 71.6452 9.84322C72.6819 9.55109 73.7435 9.40503 74.8123 9.40503C81.4136 9.40503 86.7823 14.7737 86.7823 21.375C86.7823 25.1869 84.9903 28.5855 82.208 30.78H85.4998C86.2087 30.78 86.7823 31.3536 86.7823 32.0625V60.5625C86.7823 61.2715 86.2087 61.845 85.4998 61.845H58.2823V66.5262C60.9114 67.0463 62.9848 69.1197 63.5014 71.7452H96.1873C96.8962 71.7452 97.4698 72.3188 97.4698 73.0277V89.0625ZM56.9998 68.97C54.7625 68.97 52.9385 70.7905 52.9385 73.0313C52.9385 75.2721 54.7625 77.0925 56.9998 77.0925C59.237 77.0925 61.061 75.2721 61.061 73.0313C61.061 70.7905 59.237 68.97 56.9998 68.97ZM33.3448 59.28H84.2173V47.595H33.3448V59.28ZM33.3448 45.03H84.2173V33.345H33.3448V45.03ZM37.406 30.78H74.8123C79.9993 30.78 84.2173 26.5585 84.2173 21.375C84.2173 16.1916 79.9993 11.97 74.8123 11.97C73.6295 11.97 72.4539 12.2016 71.321 12.6612C70.9862 12.793 70.5979 12.7823 70.2701 12.6184C69.9424 12.4545 69.7001 12.1588 69.6004 11.8062C68.4924 7.70928 64.7767 4.84503 60.5623 4.84503C56.273 4.84503 52.5395 7.76628 51.4779 11.9487C51.3817 12.3227 51.1217 12.6362 50.7725 12.7965C50.4234 12.9604 50.0173 12.9568 49.6682 12.7823C48.5745 12.2443 47.4452 11.97 46.3123 11.97C42.1085 11.97 38.6885 15.39 38.6885 19.5938C38.6885 20.1139 38.742 20.634 38.8453 21.1328C38.9237 21.514 38.8239 21.9165 38.571 22.2158C38.318 22.515 37.8692 22.6611 37.5521 22.6718C37.5414 22.6718 37.5307 22.6718 37.52 22.6718C35.1474 22.6718 33.3448 24.4887 33.3448 26.7152C33.3448 28.956 35.1688 30.78 37.406 30.78ZM78.3748 54.72H71.5455V52.155H78.3748V54.72ZM60.5623 54.72H39.1873V52.155H60.5623V54.72ZM78.3748 40.47H71.5455V37.905H78.3748V40.47ZM60.5623 40.47H39.1873V37.905H60.5623V40.47Z" fill="black"/>
</g>
<defs>
<clipPath id="clip0_191_2817">
<rect width="114" height="114" fill="white"/>
</clipPath>
</defs>
</svg>
