<svg width="136" height="150" viewBox="0 0 136 150" fill="none" xmlns="http://www.w3.org/2000/svg">
<g id="Group 132">
<path id="Vector" d="M16.124 108.531C24.0333 113.162 30.8641 120.459 38.1178 135.664C38.1178 135.664 54.4652 163.241 97.184 140.422C111.311 132.872 124.74 121.579 135.208 108.531H16.124Z" fill="#CCE9FF"/>
<path id="Vector_2" d="M35.5165 98.655C35.5165 98.655 44.3351 112.295 36.7219 119.443C29.1086 126.57 28.305 118.534 28.305 118.534C28.305 118.534 24.2658 118.767 32.3654 109.652C36.1932 105.359 35.5165 98.655 35.5165 98.655Z" fill="#0E538C"/>
<path id="Vector_3" d="M16.9278 74.6521C16.9278 74.6521 7.93993 85.2261 19.9519 99.8393C31.964 114.474 30.1029 122.214 30.1029 122.214C30.1029 122.214 46.8521 96.7728 16.9278 74.6521Z" fill="#2A94F4"/>
<path id="Vector_4" d="M28.3264 121.537C33.9094 122.658 29.3838 106.395 21.0092 101.447C12.6135 96.498 5.12712 96.0115 0.411133 91.2321C0.432281 91.2321 0.791796 115.975 28.3264 121.537Z" fill="#FFBE55"/>
<path id="Vector_5" d="M120.785 98.6973H55.7553C55.0151 98.6973 54.4019 98.084 54.4019 97.3438V1.35347C54.4019 0.613289 55.0151 0 55.7553 0H120.785C121.525 0 122.139 0.613289 122.139 1.35347V97.3438C122.139 98.1052 121.525 98.6973 120.785 98.6973Z" fill="#0E538C"/>
<path id="Vector_6" d="M120.785 98.6973H55.7554L122.139 1.35349V97.3438C122.139 98.1052 121.525 98.6973 120.785 98.6973Z" fill="#0E538C"/>
<path id="Vector_7" d="M111.417 63.909H114.928V90.6188H111.417V63.909Z" fill="#CCE9FF"/>
<path id="Vector_8" d="M104.501 66.8908H108.012V90.5976H104.501V66.8908Z" fill="#FFBE55"/>
<path id="Vector_9" d="M96.9512 70.782H100.462V90.5976H96.9512V70.782Z" fill="#CCE9FF"/>
<path id="Vector_10" d="M89.2328 75.6884H92.7433V90.5977H89.2328V75.6884ZM73.3507 77.6129L72.5894 77.3379L79.2087 58.7701L93.5681 54.9846L98.7282 34.598L109.789 29.7128L112.284 13.873L113.066 13.9999L110.529 30.2838L99.4049 35.1901L94.2237 55.6402L79.8431 59.4468L73.3507 77.6129Z" fill="#FFBE55"/>
<path id="Vector_11" d="M95.5768 53.9483C96.3381 54.8788 96.1901 56.2323 95.2807 56.9725C94.3502 57.7338 92.9968 57.5858 92.2566 56.6764C91.4953 55.767 91.6433 54.3924 92.5527 53.6522C93.462 52.8909 94.8155 53.0178 95.5768 53.9483Z" fill="white"/>
<path id="Vector_12" d="M95.5133 57.2897C94.4136 58.1779 92.8064 58.0299 91.9182 56.9302C91.03 55.8305 91.178 54.2233 92.2777 53.3351C93.3774 52.4469 94.9846 52.5949 95.8728 53.6946C96.7822 54.7731 96.613 56.4015 95.5133 57.2897ZM92.7852 53.9484C92.0451 54.5616 91.9182 55.6613 92.5315 56.4015C93.1447 57.1417 94.2444 57.2686 94.9846 56.6553C95.7248 56.042 95.8517 54.9423 95.2384 54.2021C94.6462 53.462 93.5466 53.3351 92.7852 53.9484Z" fill="#FFBE55"/>
<path id="Vector_13" d="M100.8 33.6463C101.562 34.5769 101.414 35.9303 100.504 36.6705C99.5739 37.4318 98.2204 37.2838 97.4802 36.3744C96.7189 35.4439 96.8669 34.0905 97.7763 33.3503C98.6856 32.5889 100.039 32.737 100.8 33.6463Z" fill="white"/>
<path id="Vector_14" d="M100.737 36.9877C99.6373 37.8759 98.03 37.7279 97.1418 36.6282C96.2536 35.5285 96.4016 33.9212 97.5013 33.033C98.601 32.1448 100.208 32.2929 101.096 33.3925C102.006 34.4922 101.837 36.0995 100.737 36.9877ZM98.0089 33.6675C97.2687 34.2808 97.1418 35.3805 97.7551 36.1206C98.3684 36.8608 99.4681 36.9877 100.208 36.3744C100.948 35.7611 101.075 34.6614 100.462 33.9212C99.8699 33.1599 98.7702 33.0542 98.0089 33.6675Z" fill="#FFBE55"/>
<path id="Vector_15" d="M111.692 28.6343C112.453 29.5648 112.305 30.9183 111.395 31.6584C110.465 32.4198 109.112 32.2717 108.371 31.3624C107.61 30.4319 107.758 29.0784 108.667 28.3382C109.577 27.5769 110.951 27.7038 111.692 28.6343Z" fill="white"/>
<path id="Vector_16" d="M111.65 31.9756C110.55 32.8639 108.943 32.7158 108.054 31.6161C107.166 30.5164 107.314 28.9092 108.414 28.021C109.514 27.1328 111.121 27.2808 112.009 28.3805C112.897 29.459 112.749 31.0874 111.65 31.9756ZM108.921 28.6343C108.181 29.2476 108.054 30.3472 108.668 31.0874C109.281 31.8276 110.381 31.9545 111.121 31.3412C111.861 30.7279 111.988 29.6282 111.375 28.888C110.782 28.1267 109.662 28.021 108.921 28.6343Z" fill="#FFBE55"/>
<path id="Vector_17" d="M81.2809 57.9242C82.0422 58.8547 81.8942 60.2081 80.9848 60.9483C80.0543 61.7097 78.7008 61.5616 77.9607 60.6523C77.2205 59.7429 77.3474 58.3683 78.2567 57.6281C79.1661 56.8668 80.5196 57.0148 81.2809 57.9242Z" fill="white"/>
<path id="Vector_18" d="M81.2174 61.2655C80.1177 62.1537 78.5105 62.0057 77.6223 60.906C76.7341 59.8063 76.8821 58.199 77.9818 57.3108C79.0815 56.4226 80.6887 56.5707 81.5769 57.6703C82.4863 58.77 82.3171 60.3773 81.2174 61.2655ZM78.4893 57.9453C77.7492 58.5586 77.6223 59.6582 78.2356 60.3984C78.8488 61.1386 79.9485 61.2655 80.6887 60.6522C81.4289 60.0389 81.5558 58.9392 80.9425 58.199C80.3503 57.4377 79.2507 57.332 78.4893 57.9453Z" fill="#FFBE55"/>
<path id="Vector_19" d="M82.8671 32.6524H61.8884C61.7192 32.6524 61.5923 32.5255 61.5923 32.3563V28.4651C61.5923 28.2959 61.7192 28.169 61.8884 28.169H82.8671C83.0363 28.169 83.1632 28.2959 83.1632 28.4651V32.3563C83.1632 32.5043 83.0363 32.6524 82.8671 32.6524Z" fill="#CCE9FF"/>
<path id="Vector_20" d="M82.8671 24.8277H61.8884C61.7192 24.8277 61.5923 24.7008 61.5923 24.5316V20.6404C61.5923 20.4712 61.7192 20.3443 61.8884 20.3443H82.8671C83.0363 20.3443 83.1632 20.4712 83.1632 20.6404V24.5316C83.1632 24.7008 83.0363 24.8277 82.8671 24.8277Z" fill="#2A94F4"/>
<path id="Vector_21" d="M57.7008 36.0572C57.7008 36.0572 57.0663 42.2324 58.2083 43.7762C58.2083 43.7762 55.1841 43.1206 54.4863 42.0843C53.8095 41.0269 57.7008 36.0572 57.7008 36.0572Z" fill="#FFBE55"/>
<path id="Vector_22" d="M76.5438 55.7459C76.5438 55.7459 77.6435 55.0057 77.8127 54.9C77.9818 54.7942 78.5528 54.8154 79.1873 54.8788C79.8217 54.9634 80.6676 55.3441 80.7099 55.4498C80.7522 55.5556 80.8579 55.619 80.8157 55.9151C80.7734 56.19 80.583 56.4226 80.583 56.4226C80.583 56.4226 80.6888 56.8033 80.435 57.0359C80.435 57.0359 80.5196 57.3954 80.1812 57.6281C80.1812 57.6281 80.2658 57.9876 80.012 58.1356C80.012 58.1356 79.441 58.1145 79.2296 58.1779C79.0181 58.2413 77.8549 58.1145 76.7553 57.8395C76.7553 57.8184 75.5287 57.5646 76.5438 55.7459Z" fill="#FFE3CA"/>
<path id="Vector_23" d="M75.8879 55.8516C75.8879 55.8516 76.5858 55.767 77.0087 55.5767C77.4317 55.3864 76.9242 57.7127 76.9242 57.7127C76.9242 57.7127 75.8879 56.9936 75.2112 56.9725C74.5556 56.9725 75.8879 55.8516 75.8879 55.8516Z" fill="#FFE3CA"/>
<path id="Vector_24" d="M47.3809 118.153C47.3809 118.153 49.538 121.304 50.2782 121.96C50.2782 121.96 51.7797 122.742 51.822 123.356C51.9066 124.54 51.97 125.217 50.0033 125.28C48.0365 125.344 46.7888 125.28 46.4293 124.075C46.0698 122.869 45.4353 121.939 45.4353 121.939L45.2873 125.048H44.8432C44.8432 125.048 44.6529 121.918 44.6106 121.474C44.5894 121.029 44.2933 119.317 45.2239 118.555C46.1755 117.836 47.3809 118.153 47.3809 118.153Z" fill="#0B4870"/>
<path id="Vector_25" d="M50.553 122.129C50.553 122.129 49.4956 122.425 48.2055 122.108C46.9367 121.791 45.7101 118.746 45.3506 118.492L45.0122 117.265H47.4865C47.4865 117.265 47.5077 118.175 47.9095 118.957C48.3324 119.718 50.553 122.129 50.553 122.129Z" fill="#FFE3CA"/>
<path id="Vector_26" d="M61.3381 116.969C61.3381 116.969 61.6553 117.73 62.2686 118.534C62.7127 119.126 64.1085 121.516 64.7218 121.685C65.3351 121.854 67.2172 122.193 67.3864 123.25C67.5556 124.307 67.6402 125.048 65.7792 125.132C63.9182 125.217 62.6916 125.323 61.8034 124.011C60.9151 122.7 59.4982 121.749 59.4982 121.749V125.153H58.7581C58.7581 125.153 58.4197 121.601 58.2294 121.347C58.039 121.093 57.5315 118.365 59.2656 116.948C60.9997 115.552 61.3381 116.969 61.3381 116.969Z" fill="#0B4870"/>
<path id="Vector_27" d="M64.7221 121.685C64.7221 121.685 63.0514 122.108 62.417 121.685C61.7825 121.262 59.6043 117.582 58.8853 117.371C58.8853 117.371 59.5831 115.954 61.3384 116.99C61.3384 116.969 64.2357 121.072 64.7221 121.685Z" fill="#FFE3CA"/>
<path id="Vector_28" d="M46.4292 65.8969C46.4292 65.8969 44.0818 68.9633 43.4473 72.5796C42.8129 76.2171 43.828 88.3983 43.8068 90.1747C43.7857 91.9723 42.2208 97.5553 42.5591 100.939C42.8975 104.323 44.6316 118.428 44.6316 118.428L48.7132 118.344C48.7132 118.344 47.8884 103.117 48.0999 101.7C48.3114 100.283 48.9669 94.2562 49.0515 93.6641C49.1361 93.072 53.7041 77.634 53.7041 75.0116C53.7041 72.3893 52.0968 61.625 46.4292 65.8969Z" fill="#FFBE55"/>
<path id="Vector_29" d="M58.2505 67.1023C58.2505 67.1023 62.1205 81.8636 62.5646 83.8938C63.0299 85.9451 63.9393 88.6098 63.897 88.9904C63.8547 89.3711 63.4106 95.6732 63.4106 95.6732L62.3109 117.117H58.2293C58.2293 117.117 56.9182 103.477 56.7067 100.728C56.4952 97.9783 58.2082 93.7276 57.7852 92.5433C57.3623 91.3801 51.0602 77.9089 51.0602 77.9089C51.0602 77.9089 46.3231 62.8093 58.2505 67.1023Z" fill="#FFBE55"/>
<path id="Vector_30" d="M57.0455 45.0028C57.0455 45.0028 58.5893 45.1508 59.7524 46.3985C60.9155 47.6463 62.0152 49.6553 62.3324 50.3109C62.6285 50.9876 66.9215 57.1628 67.1542 57.3109C67.3868 57.4589 69.2478 56.9513 70.7493 56.8245C73.2025 56.613 76.8611 55.3653 76.8611 55.3653L77.4109 58.1356C77.4109 58.1356 68.4019 61.054 66.3083 60.5253C63.7705 59.8909 57.9125 52.3834 57.9125 52.3834C57.9125 52.3834 53.5349 47.2868 57.0455 45.0028Z" fill="#2A94F4"/>
<path id="Vector_31" d="M54.3597 43.9242C54.3597 43.9242 56.3687 44.8759 57.0666 45.0028C57.7645 45.1508 60.4503 48.6402 60.9367 49.9302C61.4019 51.1991 60.9367 53.1236 59.9639 55.3864C58.9911 57.6492 59.9004 58.3894 59.4563 60.6522C59.0122 62.8939 59.0122 69.0479 59.0968 70.2957C59.1814 71.5434 46.2177 73.912 43.6377 71.628C43.6377 71.628 45.393 65.8546 47.4655 63.6975C47.9096 63.2323 47.8673 60.1024 47.5501 59.3199C47.254 58.5374 43.7857 52.7218 43.7857 52.7218C43.7857 52.7218 43.532 46.8215 45.0335 45.6584C46.3446 44.6433 49.8975 44.2837 50.5531 44.0511C51.1875 43.8396 53.0485 43.7339 54.3597 43.9242Z" fill="#2A94F4"/>
<path id="Vector_32" d="M54.9939 48.3864L56.2205 46.9695L55.1631 43.2264C55.1419 43.2052 54.8036 45.2988 54.9939 48.3864Z" fill="#0E538C"/>
<path id="Vector_33" d="M47.3596 45.0028C47.3596 45.0028 44.843 44.2838 43.3838 47.0541C41.9457 49.8457 42.3052 51.326 41.9668 52.5949C41.6285 53.8426 40.2962 62.2172 40.2116 62.5767C40.127 62.9362 38.8581 67.1869 39.0061 68.4981C39.1753 69.8093 40.3596 79.7065 40.3173 80.0449C40.2539 80.3832 42.6224 79.7277 42.6224 79.7277C42.6224 79.7277 42.5167 69.6189 42.6013 68.773C42.6859 67.9483 42.7705 63.5495 43.3838 62.4287C44.0182 61.3078 45.562 54.4136 45.8792 53.7157C46.2599 53.0178 49.4955 45.9121 47.3596 45.0028Z" fill="#EEA886"/>
<path id="Vector_34" d="M55.3115 41.6191C55.3115 41.6191 54.9097 45.2988 54.9943 46.4831C54.9943 46.4831 52.9218 48.5768 50.5532 44.0511C50.5532 44.0511 51.5472 42.1901 50.807 39.6523C50.0457 37.1146 55.3115 41.6191 55.3115 41.6191Z" fill="#FFE3CA"/>
<path id="Vector_35" d="M54.9941 46.4831V48.3864L52.7524 46.3985L54.9941 46.4831Z" fill="#FFE3CA"/>
<path id="Vector_36" d="M54.9938 48.3864L53.9999 47.1599L50.6374 43.8185L49.3896 44.3895L54.9938 48.3864ZM56.1993 46.9695L57.7431 47.3925L55.1419 43.2052L56.1993 46.9695Z" fill="#0E538C"/>
<path id="Vector_37" d="M53.9999 47.1598L52.6041 49.4015L49.3473 44.3049L50.7431 43.5858L53.9999 47.1598ZM61.1267 56.2111C61.1267 56.2111 61.6343 52.8698 61.1056 50.8607C61.1056 50.8607 60.8095 52.4891 60.0905 55.048L61.1267 56.2111ZM45.583 55.767C45.583 55.767 46.9576 51.1779 47.0422 50.9453C47.0422 50.9453 46.9576 55.1538 46.4078 57.2474C46.4078 57.2262 45.9002 56.338 45.583 55.767Z" fill="#0E538C"/>
<path id="Vector_38" d="M53.6195 29.1207C53.6195 29.1207 57.2992 29.0149 57.976 33.3926C58.6527 37.749 57.0878 41.598 56.4745 42.2112C55.8612 42.8245 52.1814 42.3593 51.3144 40.0965C50.4473 37.8336 49.1784 36.1841 49.3688 34.2173C49.5591 32.2506 49.0939 29.0361 53.6195 29.1207Z" fill="#FFE3CA"/>
<path id="Vector_39" d="M58.1448 35.0421C58.1448 35.0421 59.1387 29.6071 54.2324 28.6131C49.3472 27.6403 47.6131 30.9817 47.1479 32.9696C46.6826 34.9575 47.2324 40.5828 47.2324 40.5828C47.2324 40.5828 50.4892 43.4378 52.4348 44.178C52.4348 44.178 50.8064 38.1931 51.4197 33.9213C51.4197 33.9213 55.3955 34.5557 58.039 33.9001C58.0602 33.9001 58.1236 34.8095 58.1448 35.0421Z" fill="#FFBE55"/>
<path id="Vector_40" d="M55.2268 42.4439C55.2268 42.4439 53.9368 42.4439 52.2026 41.3019C52.2026 41.3019 53.4292 42.8457 55.1422 43.3955C55.1422 43.3955 55.2268 42.6342 55.2268 42.4439Z" fill="#FCD2B1"/>
<path id="Vector_41" d="M33.7148 72.8558L47.9488 70.529L49.6717 81.0688L35.4378 83.3956L33.7148 72.8558Z" fill="#0B4870"/>
<path id="Vector_42" d="M39.8311 83.217C39.8311 83.217 39.5985 82.8575 39.5773 82.646C39.5773 82.646 39.5773 82.2654 39.5562 81.9904C39.5562 81.9059 39.535 81.8213 39.535 81.779C39.4927 81.5886 39.3447 81.1657 39.3658 80.6581C39.387 80.1506 40.0849 78.0146 40.0849 78.0146L41.3537 78.0569L42.538 77.9301C42.538 77.9301 43.9761 80.6581 43.9972 81.1445V81.2714C43.9761 81.6732 43.8069 81.9693 43.7646 82.1808C43.7434 82.2654 43.5743 83.0056 43.3628 83.1113C43.0667 83.2593 42.8129 83.2382 42.6226 83.1324C42.6226 83.1324 42.0516 83.3862 41.6287 83.2805C41.6287 83.2805 41.1 83.5342 40.6347 83.2593C40.6558 83.2593 40.0849 83.4708 39.8311 83.217Z" fill="#FFE3CA"/>
<path id="Vector_43" d="M47.3597 45.0028C47.3597 45.0028 44.8431 44.2838 43.3839 47.0541C41.9459 49.8457 41.9459 51.0299 41.7555 52.3834C41.5652 53.6734 39.8099 61.2867 39.7253 61.6462C39.6407 62.0057 39.0697 66.764 39.0275 68.4981C39.0063 69.8093 39.3024 78.4588 39.2601 78.7971C39.1966 79.1355 43.257 78.205 43.257 78.205C43.257 78.205 42.8129 70.2322 42.8975 69.4075C42.9821 68.5827 43.1513 64.4166 43.5743 63.19C44.0607 61.7519 45.9428 54.5193 46.2812 53.8003C46.5773 53.1024 49.4957 45.9121 47.3597 45.0028Z" fill="#2A94F4"/>
<path id="Vector_44" d="M89.0632 44.4318L90.0148 49.2535L90.9665 54.0752C90.9665 54.0752 85.4892 52.3623 79.2717 53.5888L78.8487 51.4529L78.4258 49.317C84.6644 48.0904 89.0632 44.4318 89.0632 44.4318Z" fill="#FFBE55"/>
<path id="Vector_45" d="M80.1602 58.8547L80.7101 58.6009L78.2146 53.3351L76.8188 53.9906L78.9336 58.4528C79.1663 58.9604 79.6527 59.0873 80.1602 58.8547Z" fill="#2A94F4"/>
<g id="Clip path group">
<mask id="mask0_187_2483" style="mask-type:luminance" maskUnits="userSpaceOnUse" x="76" y="53" width="5" height="6">
<g id="b">
<path id="Vector_46" d="M80.1602 58.8547L80.7101 58.6009L78.2146 53.3351L76.8188 53.9906L78.9336 58.4528C79.1663 58.9604 79.6527 59.0873 80.1602 58.8547Z" fill="white"/>
</g>
</mask>
<g mask="url(#mask0_187_2483)">
<path id="Vector_47" d="M76.8188 53.3351H76.8823V59.1084H76.8188V53.3351ZM76.8823 53.3351H76.9457V59.1084H76.8823V53.3351ZM76.9457 53.3351H77.0092V59.1084H76.9457V53.3351ZM77.0092 53.3351H77.0726V59.1084H77.0092V53.3351ZM77.0726 53.3351H77.1361V59.1084H77.0726V53.3351Z" fill="#2A94F4"/>
</g>
</g>
<g id="Clip path group_2">
<mask id="mask1_187_2483" style="mask-type:luminance" maskUnits="userSpaceOnUse" x="76" y="53" width="5" height="6">
<g id="b_2">
<path id="Vector_48" d="M80.1602 58.8547L80.7101 58.6009L78.2146 53.3351L76.8188 53.9906L78.9336 58.4528C79.1663 58.9604 79.6527 59.0873 80.1602 58.8547Z" fill="white"/>
</g>
</mask>
<g mask="url(#mask1_187_2483)">
<path id="Vector_49" d="M77.1362 53.3351H77.1997V59.1084H77.1362V53.3351Z" fill="#2A94F4"/>
</g>
</g>
<g id="Clip path group_3">
<mask id="mask2_187_2483" style="mask-type:luminance" maskUnits="userSpaceOnUse" x="76" y="53" width="5" height="6">
<g id="b_3">
<path id="Vector_50" d="M80.1602 58.8547L80.7101 58.6009L78.2146 53.3351L76.8188 53.9906L78.9336 58.4528C79.1663 58.9604 79.6527 59.0873 80.1602 58.8547Z" fill="white"/>
</g>
</mask>
<g mask="url(#mask2_187_2483)">
<path id="Vector_51" d="M77.1787 53.3351H77.2422V59.1084H77.1787V53.3351Z" fill="#2A94F4"/>
</g>
</g>
<g id="Clip path group_4">
<mask id="mask3_187_2483" style="mask-type:luminance" maskUnits="userSpaceOnUse" x="76" y="53" width="5" height="6">
<g id="b_4">
<path id="Vector_52" d="M80.1602 58.8547L80.7101 58.6009L78.2146 53.3351L76.8188 53.9906L78.9336 58.4528C79.1663 58.9604 79.6527 59.0873 80.1602 58.8547Z" fill="white"/>
</g>
</mask>
<g mask="url(#mask3_187_2483)">
<path id="Vector_53" d="M77.2422 53.3351H77.3056V59.1084H77.2422V53.3351ZM77.3056 53.3351H77.3691V59.1084H77.3056V53.3351ZM77.3691 53.3351H77.4325V59.1084H77.3691V53.3351ZM77.4325 53.3351H77.496V59.1084H77.4325V53.3351Z" fill="#2A94F4"/>
</g>
</g>
<g id="Clip path group_5">
<mask id="mask4_187_2483" style="mask-type:luminance" maskUnits="userSpaceOnUse" x="76" y="53" width="5" height="6">
<g id="b_5">
<path id="Vector_54" d="M80.1602 58.8547L80.7101 58.6009L78.2146 53.3351L76.8188 53.9906L78.9336 58.4528C79.1663 58.9604 79.6527 59.0873 80.1602 58.8547Z" fill="white"/>
</g>
</mask>
<g mask="url(#mask4_187_2483)">
<path id="Vector_55" d="M77.4751 53.3351H77.5385V59.1084H77.4751V53.3351ZM77.5385 53.3351H77.602V59.1084H77.5385V53.3351ZM77.602 53.3351H77.6654V59.1084H77.602V53.3351Z" fill="#2A94F4"/>
</g>
</g>
<g id="Clip path group_6">
<mask id="mask5_187_2483" style="mask-type:luminance" maskUnits="userSpaceOnUse" x="76" y="53" width="5" height="6">
<g id="b_6">
<path id="Vector_56" d="M80.1602 58.8547L80.7101 58.6009L78.2146 53.3351L76.8188 53.9906L78.9336 58.4528C79.1663 58.9604 79.6527 59.0873 80.1602 58.8547Z" fill="white"/>
</g>
</mask>
<g mask="url(#mask5_187_2483)">
<path id="Vector_57" d="M77.665 53.3351H77.7285V59.1084H77.665V53.3351ZM77.7285 53.3351H77.7919V59.1084H77.7285V53.3351ZM77.7919 53.3351H77.8554V59.1084H77.7919V53.3351Z" fill="#2A94F4"/>
</g>
</g>
<g id="Clip path group_7">
<mask id="mask6_187_2483" style="mask-type:luminance" maskUnits="userSpaceOnUse" x="76" y="53" width="5" height="6">
<g id="b_7">
<path id="Vector_58" d="M80.1602 58.8547L80.7101 58.6009L78.2146 53.3351L76.8188 53.9906L78.9336 58.4528C79.1663 58.9604 79.6527 59.0873 80.1602 58.8547Z" fill="white"/>
</g>
</mask>
<g mask="url(#mask6_187_2483)">
<path id="Vector_59" d="M77.834 53.3351H77.8974V59.1084H77.834V53.3351ZM77.8974 53.3351H77.9609V59.1084H77.8974V53.3351ZM77.9609 53.3351H78.0243V59.1084H77.9609V53.3351ZM78.0243 53.3351H78.0878V59.1084H78.0243V53.3351Z" fill="#2A94F4"/>
</g>
</g>
<g id="Clip path group_8">
<mask id="mask7_187_2483" style="mask-type:luminance" maskUnits="userSpaceOnUse" x="76" y="53" width="5" height="6">
<g id="b_8">
<path id="Vector_60" d="M80.1602 58.8547L80.7101 58.6009L78.2146 53.3351L76.8188 53.9906L78.9336 58.4528C79.1663 58.9604 79.6527 59.0873 80.1602 58.8547Z" fill="white"/>
</g>
</mask>
<g mask="url(#mask7_187_2483)">
<path id="Vector_61" d="M78.0879 53.3351H78.1513V59.1084H78.0879V53.3351Z" fill="#2A94F4"/>
</g>
</g>
<g id="Clip path group_9">
<mask id="mask8_187_2483" style="mask-type:luminance" maskUnits="userSpaceOnUse" x="76" y="53" width="5" height="6">
<g id="b_9">
<path id="Vector_62" d="M80.1602 58.8547L80.7101 58.6009L78.2146 53.3351L76.8188 53.9906L78.9336 58.4528C79.1663 58.9604 79.6527 59.0873 80.1602 58.8547Z" fill="white"/>
</g>
</mask>
<g mask="url(#mask8_187_2483)">
<path id="Vector_63" d="M78.1304 53.3351H78.1938V59.1084H78.1304V53.3351Z" fill="#2A94F4"/>
</g>
</g>
<g id="Clip path group_10">
<mask id="mask9_187_2483" style="mask-type:luminance" maskUnits="userSpaceOnUse" x="76" y="53" width="5" height="6">
<g id="b_10">
<path id="Vector_64" d="M80.1602 58.8547L80.7101 58.6009L78.2146 53.3351L76.8188 53.9906L78.9336 58.4528C79.1663 58.9604 79.6527 59.0873 80.1602 58.8547Z" fill="white"/>
</g>
</mask>
<g mask="url(#mask9_187_2483)">
<path id="Vector_65" d="M78.1934 53.3351H78.2568V59.1084H78.1934V53.3351ZM78.2568 53.3351H78.3202V59.1084H78.2568V53.3351ZM78.3202 53.3351H78.3837V59.1084H78.3202V53.3351ZM78.3837 53.3351H78.4471V59.1084H78.3837V53.3351ZM78.4471 53.3351H78.5106V59.1084H78.4471V53.3351Z" fill="#2A94F4"/>
</g>
</g>
<g id="Clip path group_11">
<mask id="mask10_187_2483" style="mask-type:luminance" maskUnits="userSpaceOnUse" x="76" y="53" width="5" height="6">
<g id="b_11">
<path id="Vector_66" d="M80.1602 58.8547L80.7101 58.6009L78.2146 53.3351L76.8188 53.9906L78.9336 58.4528C79.1663 58.9604 79.6527 59.0873 80.1602 58.8547Z" fill="white"/>
</g>
</mask>
<g mask="url(#mask10_187_2483)">
<path id="Vector_67" d="M78.4897 53.3351H78.5532V59.1084H78.4897V53.3351ZM78.5532 53.3351H78.6166V59.1084H78.5532V53.3351Z" fill="#2A94F4"/>
</g>
</g>
<g id="Clip path group_12">
<mask id="mask11_187_2483" style="mask-type:luminance" maskUnits="userSpaceOnUse" x="76" y="53" width="5" height="6">
<g id="b_12">
<path id="Vector_68" d="M80.1602 58.8547L80.7101 58.6009L78.2146 53.3351L76.8188 53.9906L78.9336 58.4528C79.1663 58.9604 79.6527 59.0873 80.1602 58.8547Z" fill="white"/>
</g>
</mask>
<g mask="url(#mask11_187_2483)">
<path id="Vector_69" d="M78.6167 53.3351H78.6801V59.1084H78.6167V53.3351ZM78.6801 53.3351H78.7436V59.1084H78.6801V53.3351ZM78.7436 53.3351H78.807V59.1084H78.7436V53.3351ZM78.807 53.3351H78.8705V59.1084H78.807V53.3351Z" fill="#2A94F4"/>
</g>
</g>
<g id="Clip path group_13">
<mask id="mask12_187_2483" style="mask-type:luminance" maskUnits="userSpaceOnUse" x="76" y="53" width="5" height="6">
<g id="b_13">
<path id="Vector_70" d="M80.1602 58.8547L80.7101 58.6009L78.2146 53.3351L76.8188 53.9906L78.9336 58.4528C79.1663 58.9604 79.6527 59.0873 80.1602 58.8547Z" fill="white"/>
</g>
</mask>
<g mask="url(#mask12_187_2483)">
<path id="Vector_71" d="M78.8496 53.3351H78.9131V59.1084H78.8496V53.3351ZM78.9131 53.3351H78.9765V59.1084H78.9131V53.3351ZM78.9765 53.3351H79.0399V59.1084H78.9765V53.3351Z" fill="#2A94F4"/>
</g>
</g>
<g id="Clip path group_14">
<mask id="mask13_187_2483" style="mask-type:luminance" maskUnits="userSpaceOnUse" x="76" y="53" width="5" height="6">
<g id="b_14">
<path id="Vector_72" d="M80.1602 58.8547L80.7101 58.6009L78.2146 53.3351L76.8188 53.9906L78.9336 58.4528C79.1663 58.9604 79.6527 59.0873 80.1602 58.8547Z" fill="white"/>
</g>
</mask>
<g mask="url(#mask13_187_2483)">
<path id="Vector_73" d="M79.0396 53.3351H79.103V59.1084H79.0396V53.3351ZM79.103 53.3351H79.1664V59.1084H79.103V53.3351Z" fill="#2A94F4"/>
</g>
</g>
<g id="Clip path group_15">
<mask id="mask14_187_2483" style="mask-type:luminance" maskUnits="userSpaceOnUse" x="76" y="53" width="5" height="6">
<g id="b_15">
<path id="Vector_74" d="M80.1602 58.8547L80.7101 58.6009L78.2146 53.3351L76.8188 53.9906L78.9336 58.4528C79.1663 58.9604 79.6527 59.0873 80.1602 58.8547Z" fill="white"/>
</g>
</mask>
<g mask="url(#mask14_187_2483)">
<path id="Vector_75" d="M79.1455 53.3351H79.209V59.1084H79.1455V53.3351ZM79.209 53.3351H79.2724V59.1084H79.209V53.3351ZM79.2724 53.3351H79.3358V59.1084H79.2724V53.3351ZM79.3358 53.3351H79.3993V59.1084H79.3358V53.3351ZM79.3993 53.3351H79.4627V59.1084H79.3993V53.3351Z" fill="#2A94F4"/>
</g>
</g>
<g id="Clip path group_16">
<mask id="mask15_187_2483" style="mask-type:luminance" maskUnits="userSpaceOnUse" x="76" y="53" width="5" height="6">
<g id="b_16">
<path id="Vector_76" d="M80.1602 58.8547L80.7101 58.6009L78.2146 53.3351L76.8188 53.9906L78.9336 58.4528C79.1663 58.9604 79.6527 59.0873 80.1602 58.8547Z" fill="white"/>
</g>
</mask>
<g mask="url(#mask15_187_2483)">
<path id="Vector_77" d="M79.4624 53.3351H79.5258V59.1084H79.4624V53.3351Z" fill="#2A94F4"/>
</g>
</g>
<g id="Clip path group_17">
<mask id="mask16_187_2483" style="mask-type:luminance" maskUnits="userSpaceOnUse" x="76" y="53" width="5" height="6">
<g id="b_17">
<path id="Vector_78" d="M80.1602 58.8547L80.7101 58.6009L78.2146 53.3351L76.8188 53.9906L78.9336 58.4528C79.1663 58.9604 79.6527 59.0873 80.1602 58.8547Z" fill="white"/>
</g>
</mask>
<g mask="url(#mask16_187_2483)">
<path id="Vector_79" d="M79.5049 53.3351H79.5683V59.1084H79.5049V53.3351Z" fill="#2A94F4"/>
</g>
</g>
<g id="Clip path group_18">
<mask id="mask17_187_2483" style="mask-type:luminance" maskUnits="userSpaceOnUse" x="76" y="53" width="5" height="6">
<g id="b_18">
<path id="Vector_80" d="M80.1602 58.8547L80.7101 58.6009L78.2146 53.3351L76.8188 53.9906L78.9336 58.4528C79.1663 58.9604 79.6527 59.0873 80.1602 58.8547Z" fill="white"/>
</g>
</mask>
<g mask="url(#mask17_187_2483)">
<path id="Vector_81" d="M79.5679 53.3351H79.6313V59.1084H79.5679V53.3351ZM79.6313 53.3351H79.6948V59.1084H79.6313V53.3351ZM79.6948 53.3351H79.7582V59.1084H79.6948V53.3351ZM79.7582 53.3351H79.8216V59.1084H79.7582V53.3351Z" fill="#2A94F4"/>
</g>
</g>
<g id="Clip path group_19">
<mask id="mask18_187_2483" style="mask-type:luminance" maskUnits="userSpaceOnUse" x="76" y="53" width="5" height="6">
<g id="b_19">
<path id="Vector_82" d="M80.1602 58.8547L80.7101 58.6009L78.2146 53.3351L76.8188 53.9906L78.9336 58.4528C79.1663 58.9604 79.6527 59.0873 80.1602 58.8547Z" fill="white"/>
</g>
</mask>
<g mask="url(#mask18_187_2483)">
<path id="Vector_83" d="M79.8008 53.3351H79.8642V59.1084H79.8008V53.3351ZM79.8642 53.3351H79.9277V59.1084H79.8642V53.3351ZM79.9277 53.3351H79.9911V59.1084H79.9277V53.3351Z" fill="#2A94F4"/>
</g>
</g>
<g id="Clip path group_20">
<mask id="mask19_187_2483" style="mask-type:luminance" maskUnits="userSpaceOnUse" x="76" y="53" width="5" height="6">
<g id="b_20">
<path id="Vector_84" d="M80.1602 58.8547L80.7101 58.6009L78.2146 53.3351L76.8188 53.9906L78.9336 58.4528C79.1663 58.9604 79.6527 59.0873 80.1602 58.8547Z" fill="white"/>
</g>
</mask>
<g mask="url(#mask19_187_2483)">
<path id="Vector_85" d="M79.9912 53.3351H80.0547V59.1084H79.9912V53.3351ZM80.0547 53.3351H80.1181V59.1084H80.0547V53.3351ZM80.1181 53.3351H80.1815V59.1084H80.1181V53.3351Z" fill="#2A94F4"/>
</g>
</g>
<g id="Clip path group_21">
<mask id="mask20_187_2483" style="mask-type:luminance" maskUnits="userSpaceOnUse" x="76" y="53" width="5" height="6">
<g id="b_21">
<path id="Vector_86" d="M80.1602 58.8547L80.7101 58.6009L78.2146 53.3351L76.8188 53.9906L78.9336 58.4528C79.1663 58.9604 79.6527 59.0873 80.1602 58.8547Z" fill="white"/>
</g>
</mask>
<g mask="url(#mask20_187_2483)">
<path id="Vector_87" d="M80.1606 53.3351H80.2241V59.1084H80.1606V53.3351ZM80.2241 53.3351H80.2875V59.1084H80.2241V53.3351ZM80.2875 53.3351H80.351V59.1084H80.2875V53.3351ZM80.351 53.3351H80.4144V59.1084H80.351V53.3351Z" fill="#2A94F4"/>
</g>
</g>
<g id="Clip path group_22">
<mask id="mask21_187_2483" style="mask-type:luminance" maskUnits="userSpaceOnUse" x="76" y="53" width="5" height="6">
<g id="b_22">
<path id="Vector_88" d="M80.1602 58.8547L80.7101 58.6009L78.2146 53.3351L76.8188 53.9906L78.9336 58.4528C79.1663 58.9604 79.6527 59.0873 80.1602 58.8547Z" fill="white"/>
</g>
</mask>
<g mask="url(#mask21_187_2483)">
<path id="Vector_89" d="M80.4146 53.3351H80.478V59.1084H80.4146V53.3351Z" fill="#2A94F4"/>
</g>
</g>
<g id="Clip path group_23">
<mask id="mask22_187_2483" style="mask-type:luminance" maskUnits="userSpaceOnUse" x="76" y="53" width="5" height="6">
<g id="b_23">
<path id="Vector_90" d="M80.1602 58.8547L80.7101 58.6009L78.2146 53.3351L76.8188 53.9906L78.9336 58.4528C79.1663 58.9604 79.6527 59.0873 80.1602 58.8547Z" fill="white"/>
</g>
</mask>
<g mask="url(#mask22_187_2483)">
<path id="Vector_91" d="M80.4565 53.3351H80.52V59.1084H80.4565V53.3351Z" fill="#2A94F4"/>
</g>
</g>
<g id="Clip path group_24">
<mask id="mask23_187_2483" style="mask-type:luminance" maskUnits="userSpaceOnUse" x="76" y="53" width="5" height="6">
<g id="b_24">
<path id="Vector_92" d="M80.1602 58.8547L80.7101 58.6009L78.2146 53.3351L76.8188 53.9906L78.9336 58.4528C79.1663 58.9604 79.6527 59.0873 80.1602 58.8547Z" fill="white"/>
</g>
</mask>
<g mask="url(#mask23_187_2483)">
<path id="Vector_93" d="M80.52 53.3351H80.5835V59.1084H80.52V53.3351ZM80.5835 53.3351H80.6469V59.1084H80.5835V53.3351ZM80.6469 53.3351H80.7103V59.1084H80.6469V53.3351Z" fill="#2A94F4"/>
</g>
</g>
<path id="Vector_94" d="M74.9997 54.477L80.477 53.4619L79.5888 48.9574L74.1538 50.2051L74.9997 54.477Z" fill="#2A94F4"/>
<g id="Clip path group_25">
<mask id="mask24_187_2483" style="mask-type:luminance" maskUnits="userSpaceOnUse" x="74" y="48" width="7" height="7">
<g id="d">
<path id="Vector_95" d="M74.9997 54.477L80.477 53.4619L79.5888 48.9574L74.1538 50.2051L74.9997 54.477Z" fill="white"/>
</g>
</mask>
<g mask="url(#mask24_187_2483)">
<path id="Vector_96" d="M74.1538 48.9574H74.2595V54.477H74.1538V48.9574Z" fill="#2A94F4"/>
</g>
</g>
<g id="Clip path group_26">
<mask id="mask25_187_2483" style="mask-type:luminance" maskUnits="userSpaceOnUse" x="74" y="48" width="7" height="7">
<g id="d_2">
<path id="Vector_97" d="M74.9997 54.477L80.477 53.4619L79.5888 48.9574L74.1538 50.2051L74.9997 54.477Z" fill="white"/>
</g>
</mask>
<g mask="url(#mask25_187_2483)">
<path id="Vector_98" d="M74.2388 48.9574H74.3445V54.477H74.2388V48.9574ZM74.3445 48.9574H74.4502V54.477H74.3445V48.9574Z" fill="#2A94F4"/>
</g>
</g>
<g id="Clip path group_27">
<mask id="mask26_187_2483" style="mask-type:luminance" maskUnits="userSpaceOnUse" x="74" y="48" width="7" height="7">
<g id="d_3">
<path id="Vector_99" d="M74.9997 54.477L80.477 53.4619L79.5888 48.9574L74.1538 50.2051L74.9997 54.477Z" fill="white"/>
</g>
</mask>
<g mask="url(#mask26_187_2483)">
<path id="Vector_100" d="M74.4287 48.9574H74.5345V54.477H74.4287V48.9574ZM74.5345 48.9574H74.6402V54.477H74.5345V48.9574ZM74.6402 48.9574H74.7459V54.477H74.6402V48.9574Z" fill="#2A94F4"/>
</g>
</g>
<g id="Clip path group_28">
<mask id="mask27_187_2483" style="mask-type:luminance" maskUnits="userSpaceOnUse" x="74" y="48" width="7" height="7">
<g id="d_4">
<path id="Vector_101" d="M74.9997 54.477L80.477 53.4619L79.5888 48.9574L74.1538 50.2051L74.9997 54.477Z" fill="white"/>
</g>
</mask>
<g mask="url(#mask27_187_2483)">
<path id="Vector_102" d="M74.7251 48.9574H74.8308V54.477H74.7251V48.9574ZM74.8308 48.9574H74.9366V54.477H74.8308V48.9574Z" fill="#2A94F4"/>
</g>
</g>
<g id="Clip path group_29">
<mask id="mask28_187_2483" style="mask-type:luminance" maskUnits="userSpaceOnUse" x="74" y="48" width="7" height="7">
<g id="d_5">
<path id="Vector_103" d="M74.9997 54.477L80.477 53.4619L79.5888 48.9574L74.1538 50.2051L74.9997 54.477Z" fill="white"/>
</g>
</mask>
<g mask="url(#mask28_187_2483)">
<path id="Vector_104" d="M74.915 48.9574H75.0208V54.477H74.915V48.9574ZM75.0208 48.9574H75.1265V54.477H75.0208V48.9574ZM75.1265 48.9574H75.2323V54.477H75.1265V48.9574Z" fill="#2A94F4"/>
</g>
</g>
<g id="Clip path group_30">
<mask id="mask29_187_2483" style="mask-type:luminance" maskUnits="userSpaceOnUse" x="74" y="48" width="7" height="7">
<g id="d_6">
<path id="Vector_105" d="M74.9997 54.477L80.477 53.4619L79.5888 48.9574L74.1538 50.2051L74.9997 54.477Z" fill="white"/>
</g>
</mask>
<g mask="url(#mask29_187_2483)">
<path id="Vector_106" d="M75.2114 48.9574H75.3172V54.477H75.2114V48.9574ZM75.3172 48.9574H75.4229V54.477H75.3172V48.9574Z" fill="#2A94F4"/>
</g>
</g>
<g id="Clip path group_31">
<mask id="mask30_187_2483" style="mask-type:luminance" maskUnits="userSpaceOnUse" x="74" y="48" width="7" height="7">
<g id="d_7">
<path id="Vector_107" d="M74.9997 54.477L80.477 53.4619L79.5888 48.9574L74.1538 50.2051L74.9997 54.477Z" fill="white"/>
</g>
</mask>
<g mask="url(#mask30_187_2483)">
<path id="Vector_108" d="M75.4014 48.9574H75.5071V54.477H75.4014V48.9574ZM75.5071 48.9574H75.6128V54.477H75.5071V48.9574ZM75.6128 48.9574H75.7186V54.477H75.6128V48.9574Z" fill="#2A94F4"/>
</g>
</g>
<g id="Clip path group_32">
<mask id="mask31_187_2483" style="mask-type:luminance" maskUnits="userSpaceOnUse" x="74" y="48" width="7" height="7">
<g id="d_8">
<path id="Vector_109" d="M74.9997 54.477L80.477 53.4619L79.5888 48.9574L74.1538 50.2051L74.9997 54.477Z" fill="white"/>
</g>
</mask>
<g mask="url(#mask31_187_2483)">
<path id="Vector_110" d="M75.6978 48.9574H75.8035V54.477H75.6978V48.9574ZM75.8035 48.9574H75.9092V54.477H75.8035V48.9574Z" fill="#2A94F4"/>
</g>
</g>
<g id="Clip path group_33">
<mask id="mask32_187_2483" style="mask-type:luminance" maskUnits="userSpaceOnUse" x="74" y="48" width="7" height="7">
<g id="d_9">
<path id="Vector_111" d="M74.9997 54.477L80.477 53.4619L79.5888 48.9574L74.1538 50.2051L74.9997 54.477Z" fill="white"/>
</g>
</mask>
<g mask="url(#mask32_187_2483)">
<path id="Vector_112" d="M75.8882 48.9574H75.9939V54.477H75.8882V48.9574ZM75.9939 48.9574H76.0997V54.477H75.9939V48.9574ZM76.0997 48.9574H76.2054V54.477H76.0997V48.9574Z" fill="#2A94F4"/>
</g>
</g>
<g id="Clip path group_34">
<mask id="mask33_187_2483" style="mask-type:luminance" maskUnits="userSpaceOnUse" x="74" y="48" width="7" height="7">
<g id="d_10">
<path id="Vector_113" d="M74.9997 54.477L80.477 53.4619L79.5888 48.9574L74.1538 50.2051L74.9997 54.477Z" fill="white"/>
</g>
</mask>
<g mask="url(#mask33_187_2483)">
<path id="Vector_114" d="M76.1841 48.9574H76.2898V54.477H76.1841V48.9574ZM76.2898 48.9574H76.3956V54.477H76.2898V48.9574Z" fill="#2A94F4"/>
</g>
</g>
<g id="Clip path group_35">
<mask id="mask34_187_2483" style="mask-type:luminance" maskUnits="userSpaceOnUse" x="74" y="48" width="7" height="7">
<g id="d_11">
<path id="Vector_115" d="M74.9997 54.477L80.477 53.4619L79.5888 48.9574L74.1538 50.2051L74.9997 54.477Z" fill="white"/>
</g>
</mask>
<g mask="url(#mask34_187_2483)">
<path id="Vector_116" d="M76.3745 48.9574H76.4803V54.477H76.3745V48.9574ZM76.4803 48.9574H76.586V54.477H76.4803V48.9574ZM76.586 48.9574H76.6917V54.477H76.586V48.9574Z" fill="#2A94F4"/>
</g>
</g>
<g id="Clip path group_36">
<mask id="mask35_187_2483" style="mask-type:luminance" maskUnits="userSpaceOnUse" x="74" y="48" width="7" height="7">
<g id="d_12">
<path id="Vector_117" d="M74.9997 54.477L80.477 53.4619L79.5888 48.9574L74.1538 50.2051L74.9997 54.477Z" fill="white"/>
</g>
</mask>
<g mask="url(#mask35_187_2483)">
<path id="Vector_118" d="M76.6704 48.9574H76.7761V54.477H76.6704V48.9574ZM76.7761 48.9574H76.8819V54.477H76.7761V48.9574Z" fill="#2A94F4"/>
</g>
</g>
<g id="Clip path group_37">
<mask id="mask36_187_2483" style="mask-type:luminance" maskUnits="userSpaceOnUse" x="74" y="48" width="7" height="7">
<g id="d_13">
<path id="Vector_119" d="M74.9997 54.477L80.477 53.4619L79.5888 48.9574L74.1538 50.2051L74.9997 54.477Z" fill="white"/>
</g>
</mask>
<g mask="url(#mask36_187_2483)">
<path id="Vector_120" d="M76.8608 48.9574H76.9666V54.477H76.8608V48.9574ZM76.9666 48.9574H77.0723V54.477H76.9666V48.9574ZM77.0723 48.9574H77.1781V54.477H77.0723V48.9574Z" fill="#2A94F4"/>
</g>
</g>
<g id="Clip path group_38">
<mask id="mask37_187_2483" style="mask-type:luminance" maskUnits="userSpaceOnUse" x="74" y="48" width="7" height="7">
<g id="d_14">
<path id="Vector_121" d="M74.9997 54.477L80.477 53.4619L79.5888 48.9574L74.1538 50.2051L74.9997 54.477Z" fill="white"/>
</g>
</mask>
<g mask="url(#mask37_187_2483)">
<path id="Vector_122" d="M77.1572 48.9574H77.263V54.477H77.1572V48.9574ZM77.263 48.9574H77.3687V54.477H77.263V48.9574ZM77.3687 48.9574H77.4744V54.477H77.3687V48.9574Z" fill="#2A94F4"/>
</g>
</g>
<g id="Clip path group_39">
<mask id="mask38_187_2483" style="mask-type:luminance" maskUnits="userSpaceOnUse" x="74" y="48" width="7" height="7">
<g id="d_15">
<path id="Vector_123" d="M74.9997 54.477L80.477 53.4619L79.5888 48.9574L74.1538 50.2051L74.9997 54.477Z" fill="white"/>
</g>
</mask>
<g mask="url(#mask38_187_2483)">
<path id="Vector_124" d="M77.4526 48.9574H77.5584V54.477H77.4526V48.9574ZM77.5584 48.9574H77.6641V54.477H77.5584V48.9574Z" fill="#2A94F4"/>
</g>
</g>
<g id="Clip path group_40">
<mask id="mask39_187_2483" style="mask-type:luminance" maskUnits="userSpaceOnUse" x="74" y="48" width="7" height="7">
<g id="d_16">
<path id="Vector_125" d="M74.9997 54.477L80.477 53.4619L79.5888 48.9574L74.1538 50.2051L74.9997 54.477Z" fill="white"/>
</g>
</mask>
<g mask="url(#mask39_187_2483)">
<path id="Vector_126" d="M77.6436 48.9574H77.7493V54.477H77.6436V48.9574ZM77.7493 48.9574H77.855V54.477H77.7493V48.9574ZM77.855 48.9574H77.9608V54.477H77.855V48.9574Z" fill="#2A94F4"/>
</g>
</g>
<g id="Clip path group_41">
<mask id="mask40_187_2483" style="mask-type:luminance" maskUnits="userSpaceOnUse" x="74" y="48" width="7" height="7">
<g id="d_17">
<path id="Vector_127" d="M74.9997 54.477L80.477 53.4619L79.5888 48.9574L74.1538 50.2051L74.9997 54.477Z" fill="white"/>
</g>
</mask>
<g mask="url(#mask40_187_2483)">
<path id="Vector_128" d="M77.939 48.9574H78.0447V54.477H77.939V48.9574ZM78.0447 48.9574H78.1504V54.477H78.0447V48.9574Z" fill="#2A94F4"/>
</g>
</g>
<g id="Clip path group_42">
<mask id="mask41_187_2483" style="mask-type:luminance" maskUnits="userSpaceOnUse" x="74" y="48" width="7" height="7">
<g id="d_18">
<path id="Vector_129" d="M74.9997 54.477L80.477 53.4619L79.5888 48.9574L74.1538 50.2051L74.9997 54.477Z" fill="white"/>
</g>
</mask>
<g mask="url(#mask41_187_2483)">
<path id="Vector_130" d="M78.1299 48.9574H78.2356V54.477H78.1299V48.9574ZM78.2356 48.9574H78.3414V54.477H78.2356V48.9574ZM78.3414 48.9574H78.4471V54.477H78.3414V48.9574Z" fill="#2A94F4"/>
</g>
</g>
<g id="Clip path group_43">
<mask id="mask42_187_2483" style="mask-type:luminance" maskUnits="userSpaceOnUse" x="74" y="48" width="7" height="7">
<g id="d_19">
<path id="Vector_131" d="M74.9997 54.477L80.477 53.4619L79.5888 48.9574L74.1538 50.2051L74.9997 54.477Z" fill="white"/>
</g>
</mask>
<g mask="url(#mask42_187_2483)">
<path id="Vector_132" d="M78.4258 48.9574H78.5315V54.477H78.4258V48.9574ZM78.5315 48.9574H78.6373V54.477H78.5315V48.9574Z" fill="#2A94F4"/>
</g>
</g>
<g id="Clip path group_44">
<mask id="mask43_187_2483" style="mask-type:luminance" maskUnits="userSpaceOnUse" x="74" y="48" width="7" height="7">
<g id="d_20">
<path id="Vector_133" d="M74.9997 54.477L80.477 53.4619L79.5888 48.9574L74.1538 50.2051L74.9997 54.477Z" fill="white"/>
</g>
</mask>
<g mask="url(#mask43_187_2483)">
<path id="Vector_134" d="M78.6162 48.9574H78.722V54.477H78.6162V48.9574ZM78.722 48.9574H78.8277V54.477H78.722V48.9574ZM78.8277 48.9574H78.9334V54.477H78.8277V48.9574Z" fill="#2A94F4"/>
</g>
</g>
<g id="Clip path group_45">
<mask id="mask44_187_2483" style="mask-type:luminance" maskUnits="userSpaceOnUse" x="74" y="48" width="7" height="7">
<g id="d_21">
<path id="Vector_135" d="M74.9997 54.477L80.477 53.4619L79.5888 48.9574L74.1538 50.2051L74.9997 54.477Z" fill="white"/>
</g>
</mask>
<g mask="url(#mask44_187_2483)">
<path id="Vector_136" d="M78.9121 48.9574H79.0178V54.477H78.9121V48.9574ZM79.0178 48.9574H79.1236V54.477H79.0178V48.9574Z" fill="#2A94F4"/>
</g>
</g>
<g id="Clip path group_46">
<mask id="mask45_187_2483" style="mask-type:luminance" maskUnits="userSpaceOnUse" x="74" y="48" width="7" height="7">
<g id="d_22">
<path id="Vector_137" d="M74.9997 54.477L80.477 53.4619L79.5888 48.9574L74.1538 50.2051L74.9997 54.477Z" fill="white"/>
</g>
</mask>
<g mask="url(#mask45_187_2483)">
<path id="Vector_138" d="M79.1025 48.9574H79.2083V54.477H79.1025V48.9574ZM79.2083 48.9574H79.314V54.477H79.2083V48.9574ZM79.314 48.9574H79.4198V54.477H79.314V48.9574Z" fill="#2A94F4"/>
</g>
</g>
<g id="Clip path group_47">
<mask id="mask46_187_2483" style="mask-type:luminance" maskUnits="userSpaceOnUse" x="74" y="48" width="7" height="7">
<g id="d_23">
<path id="Vector_139" d="M74.9997 54.477L80.477 53.4619L79.5888 48.9574L74.1538 50.2051L74.9997 54.477Z" fill="white"/>
</g>
</mask>
<g mask="url(#mask46_187_2483)">
<path id="Vector_140" d="M79.3984 48.9574H79.5042V54.477H79.3984V48.9574ZM79.5042 48.9574H79.6099V54.477H79.5042V48.9574Z" fill="#2A94F4"/>
</g>
</g>
<g id="Clip path group_48">
<mask id="mask47_187_2483" style="mask-type:luminance" maskUnits="userSpaceOnUse" x="74" y="48" width="7" height="7">
<g id="d_24">
<path id="Vector_141" d="M74.9997 54.477L80.477 53.4619L79.5888 48.9574L74.1538 50.2051L74.9997 54.477Z" fill="white"/>
</g>
</mask>
<g mask="url(#mask47_187_2483)">
<path id="Vector_142" d="M79.5894 48.9574H79.6951V54.477H79.5894V48.9574ZM79.6951 48.9574H79.8008V54.477H79.6951V48.9574ZM79.8008 48.9574H79.9066V54.477H79.8008V48.9574Z" fill="#2A94F4"/>
</g>
</g>
<g id="Clip path group_49">
<mask id="mask48_187_2483" style="mask-type:luminance" maskUnits="userSpaceOnUse" x="74" y="48" width="7" height="7">
<g id="d_25">
<path id="Vector_143" d="M74.9997 54.477L80.477 53.4619L79.5888 48.9574L74.1538 50.2051L74.9997 54.477Z" fill="white"/>
</g>
</mask>
<g mask="url(#mask48_187_2483)">
<path id="Vector_144" d="M79.8848 48.9574H79.9905V54.477H79.8848V48.9574ZM79.9905 48.9574H80.0962V54.477H79.9905V48.9574Z" fill="#2A94F4"/>
</g>
</g>
<g id="Clip path group_50">
<mask id="mask49_187_2483" style="mask-type:luminance" maskUnits="userSpaceOnUse" x="74" y="48" width="7" height="7">
<g id="d_26">
<path id="Vector_145" d="M74.9997 54.477L80.477 53.4619L79.5888 48.9574L74.1538 50.2051L74.9997 54.477Z" fill="white"/>
</g>
</mask>
<g mask="url(#mask49_187_2483)">
<path id="Vector_146" d="M80.0757 48.9574H80.1814V54.477H80.0757V48.9574ZM80.1814 48.9574H80.2872V54.477H80.1814V48.9574ZM80.2872 48.9574H80.3929V54.477H80.2872V48.9574Z" fill="#2A94F4"/>
</g>
</g>
<g id="Clip path group_51">
<mask id="mask50_187_2483" style="mask-type:luminance" maskUnits="userSpaceOnUse" x="74" y="48" width="7" height="7">
<g id="d_27">
<path id="Vector_147" d="M74.9997 54.477L80.477 53.4619L79.5888 48.9574L74.1538 50.2051L74.9997 54.477Z" fill="white"/>
</g>
</mask>
<g mask="url(#mask50_187_2483)">
<path id="Vector_148" d="M80.3711 48.9574H80.4768V54.477H80.3711V48.9574Z" fill="#2A94F4"/>
</g>
</g>
<path id="Vector_149" d="M80.5407 55.4287C80.5407 55.4287 78.9124 55.2807 78.8489 55.5344C78.7855 55.7882 78.9335 55.9151 78.9335 55.9151L78.2356 56.1477C78.2356 56.1477 77.855 56.5707 78.426 56.8456C78.426 56.8456 78.0453 57.2051 78.6163 57.4166C78.6163 57.4166 78.4683 57.7761 78.722 57.903C78.9758 58.051 80.0332 58.0933 80.0332 58.0933C80.0332 58.0933 80.2658 58.0087 80.2024 57.5858C80.2024 57.5858 80.5407 57.3743 80.4562 56.9936C80.4562 56.9936 80.6888 56.7822 80.6042 56.3804C80.6042 56.3804 81.1117 55.8728 80.7311 55.4076C80.7099 55.4498 80.6042 55.4287 80.5407 55.4287Z" fill="#FFE3CA"/>
</g>
</svg>
