<svg width="114" height="114" viewBox="0 0 114 114" fill="none" xmlns="http://www.w3.org/2000/svg">
<g id="global-partner-svgrepo-com 1" clip-path="url(#clip0_191_2823)">
<path id="global--partner_1_" d="M14.5918 33.345H33.7758C31.8699 40.4273 30.7798 48.4643 30.7798 57H33.3448C33.3448 48.4144 34.4456 40.3525 36.3551 33.345H55.7173V57H58.2823V33.345H77.6445C79.554 40.3525 80.6548 48.4144 80.6548 57H83.2234C83.2234 48.4643 82.1332 40.4273 80.2309 33.345H99.4114C103.337 40.3525 105.596 48.4144 105.596 57H108.164C108.164 28.7922 85.2148 5.84253 57.0069 5.84253C28.799 5.84253 5.84229 28.7922 5.84229 57H8.40728C8.40728 48.4144 10.6659 40.3525 14.5918 33.345ZM37.1139 30.78C41.1075 18.0405 47.9118 9.40503 55.7173 8.53934V30.78H37.1139ZM58.2823 30.78V8.53934C66.0877 9.40503 72.8885 18.0405 76.8857 30.78H58.2823ZM97.8474 30.78H79.472C76.4902 21.0936 71.9267 13.4912 66.4653 9.34803C79.6074 11.9558 90.8293 19.8859 97.8474 30.78ZM47.5342 9.34803C42.0765 13.4912 37.5093 21.0936 34.5311 30.78H16.1522C23.1703 19.8859 34.3922 11.9558 47.5342 9.34803ZM80.6548 67.6875V69.6113L67.6873 66.405H57.894C55.8562 66.405 53.8897 67.146 52.3614 68.4891L50.6728 69.9675H33.3448V67.6875C33.3448 66.9786 32.7712 66.405 32.0623 66.405H7.12479V68.9736H30.7798V98.4675H7.12479V101.036H32.0623C32.7712 101.036 33.3448 100.463 33.3448 99.7536V97.4736H36.7434L44.3957 108.311C45.3504 109.376 46.6757 109.925 48.0116 109.925C48.9806 109.925 49.9532 109.636 50.7975 109.041L53.0882 107.431C53.2235 107.481 53.3304 107.58 53.4729 107.62C53.8897 107.726 54.3101 107.783 54.7269 107.783C55.5677 107.783 56.3977 107.563 57.1423 107.128L60.1063 105.418C60.6478 105.617 61.2071 105.756 61.7878 105.756C62.6072 105.756 63.4408 105.546 64.2032 105.108L67.1707 103.394C67.7122 103.594 68.2715 103.733 68.8522 103.733C69.6716 103.733 70.5088 103.523 71.2712 103.085C73.2733 101.927 74.0428 99.5577 73.3837 97.47H80.6584V99.75C80.6584 100.459 81.2319 101.033 81.9408 101.033H106.878V98.4675H83.2234V68.97H106.875V66.405H81.9373C81.2283 66.405 80.6548 66.9786 80.6548 67.6875ZM69.9851 100.865C68.8985 101.492 67.4949 101.118 66.8679 100.031L61.5242 90.7761L59.3012 92.055L64.8943 101.745L62.9207 102.881C61.8305 103.519 60.434 103.138 59.8035 102.051L56.241 95.8812L55.3503 94.3386L53.1309 95.6175L54.0215 97.1565L57.584 103.327L57.5912 103.334L57.837 103.758L55.8598 104.898C55.3397 105.204 54.7269 105.283 54.1391 105.126C53.5513 104.969 53.0632 104.595 52.7568 104.075L49.1872 97.894L46.9642 99.1729L50.5267 105.343L50.5338 105.354L50.8331 105.87L49.3226 106.936C48.3785 107.602 47.0853 107.452 46.4013 106.708L38.457 95.443C38.2147 95.101 37.8264 94.8979 37.4096 94.8979H33.3448V72.5325H47.7373L41.0184 78.4107C40.5197 78.8417 40.2204 79.4687 40.199 80.1242C40.1741 80.7833 40.427 81.4281 40.8973 81.8948C43.9325 84.93 48.749 85.1937 52.0978 82.5147L55.671 79.654H61.5598L70.8187 97.7443C71.4422 98.838 71.0681 100.238 69.9851 100.865ZM72.2366 94.905L63.4835 77.7908C63.2627 77.3633 62.8209 77.0925 62.3435 77.0925H55.2185C54.9264 77.0925 54.645 77.1923 54.417 77.374L50.4911 80.5161C48.1648 82.3757 44.8232 82.1976 42.7035 80.3451L54.05 70.4164C55.1117 69.483 56.4761 68.9736 57.894 68.9736L67.3773 68.9344L80.6548 72.2547V94.905H72.2366Z" fill="black"/>
</g>
<defs>
<clipPath id="clip0_191_2823">
<rect width="114" height="114" fill="white"/>
</clipPath>
</defs>
</svg>
