<svg width="24" height="24" viewBox="0 0 24 24" fill="none" xmlns="http://www.w3.org/2000/svg">
<g id="arrow_forward_FILL0_wght500_GRAD0_opsz48 1">
<path id="Vector" d="M11.4033 19.438C11.2461 19.2847 11.1675 19.0868 11.1675 18.8443C11.1675 18.6017 11.2461 18.4017 11.4033 18.2445L16.7963 12.8516H4.78595C4.54138 12.8516 4.3383 12.7708 4.1767 12.6092C4.01512 12.4476 3.93433 12.2445 3.93433 11.9999C3.93433 11.7554 4.01512 11.5523 4.1767 11.3907C4.3383 11.2291 4.54138 11.1483 4.78595 11.1483H16.7963L11.4033 5.7494C11.2461 5.59615 11.1675 5.39407 11.1675 5.14315C11.1675 4.89225 11.2461 4.68817 11.4033 4.53092C11.5606 4.37766 11.7605 4.30103 12.0031 4.30103C12.2456 4.30103 12.4456 4.37766 12.6028 4.53092L19.4751 11.4032C19.5664 11.4945 19.6317 11.5888 19.671 11.6861C19.7103 11.7834 19.73 11.888 19.73 11.9999C19.73 12.0992 19.7103 12.2007 19.671 12.3043C19.6317 12.4079 19.5664 12.5054 19.4751 12.5967L12.6028 19.469C12.4456 19.6262 12.2456 19.6997 12.0031 19.6893C11.7605 19.679 11.5606 19.5953 11.4033 19.438Z" fill="white"/>
</g>
</svg>
